<svg xmlns="http://www.w3.org/2000/svg" version="1.1" xmlns:xlink="http://www.w3.org/1999/xlink" xmlns:svgjs="http://svgjs.dev/svgjs" width="200" height="250" viewBox="0 0 2000 2546"><g transform="matrix(1,0,0,1,2.2276063640869097,1.0307692307692378)"><svg viewBox="0 0 194 247" data-background-color="#000000" preserveAspectRatio="xMidYMid meet" height="2546" width="2000" xmlns="http://www.w3.org/2000/svg" xmlns:xlink="http://www.w3.org/1999/xlink"><g id="tight-bounds" transform="matrix(1,0,0,1,-0.21607781731643172,-0.09999999999999432)"><svg viewBox="0 0 194.4321556346329 247.2" height="247.2" width="194.4321556346329"><g><svg></svg></g><g><svg viewBox="0 0 194.4321556346329 247.2" height="247.2" width="194.4321556346329"><g transform="matrix(1,0,0,1,0,47.215199999999996)"><svg viewBox="0 0 194.4321556346329 152.7696" height="152.7696" width="194.4321556346329"><g><svg viewBox="0 0 194.4321556346329 152.7696" height="152.7696" width="194.4321556346329"><g><svg viewBox="0 0 244.43135999999998 192.05506914620955" height="152.7696" width="194.4321556346329"><g><svg viewBox="0 0 244.43135999999998 192.05506914620955" height="192.05506914620955" width="244.43135999999998"><g id="textblocktransform"><svg viewBox="0 0 244.43135999999998 192.05506914620955" height="192.05506914620955" width="244.43135999999998" id="textblock"><g><svg viewBox="0 0 244.43135999999998 132.72664067453627" height="132.72664067453627" width="244.43135999999998"><g transform="matrix(1,0,0,1,0,0)"><svg width="244.43135999999998" viewBox="1.35 -31.95 59.3 32.2" height="132.72664067453627" data-palette-color="url(#658d7b1d-98c7-4121-be73-ef648a79d684)"></svg></g></svg></g><g transform="matrix(1,0,0,1,0,164.0602150984181)"><svg viewBox="0 0 244.43135999999998 27.994854047791453" height="27.994854047791453" width="244.43135999999998"><g transform="matrix(1,0,0,1,0,0)"><svg width="244.43135999999998" viewBox="0.45 -29.75 414.25 47.45" height="27.994854047791453" data-palette-color="url(#d66c829f-de8a-4785-8b25-4370a72ef83a)"></svg></g></svg></g></svg></g></svg></g><g></g></svg></g></svg></g></svg></g></svg></g><defs></defs><mask id="b189ac9a-e751-4c16-8508-2795e38267a0"><g id="SvgjsG1854"><svg viewBox="0 0 194.4321556346329 247.2" height="247.2" width="194.4321556346329"><g><svg></svg></g><g><svg viewBox="0 0 194.4321556346329 247.2" height="247.2" width="194.4321556346329"><g transform="matrix(1,0,0,1,0,47.215199999999996)"><svg viewBox="0 0 194.4321556346329 152.7696" height="152.7696" width="194.4321556346329"><g><svg viewBox="0 0 194.4321556346329 152.7696" height="152.7696" width="194.4321556346329"><g><svg viewBox="0 0 244.43135999999998 192.05506914620955" height="152.7696" width="194.4321556346329"><g><svg viewBox="0 0 244.43135999999998 192.05506914620955" height="192.05506914620955" width="244.43135999999998"><g id="SvgjsG1853"><svg viewBox="0 0 244.43135999999998 192.05506914620955" height="192.05506914620955" width="244.43135999999998" id="SvgjsSvg1852"><g><svg viewBox="0 0 244.43135999999998 132.72664067453627" height="132.72664067453627" width="244.43135999999998"><g transform="matrix(1,0,0,1,0,0)"><svg width="244.43135999999998" viewBox="1.35 -31.95 59.3 32.2" height="132.72664067453627" data-palette-color="url(#658d7b1d-98c7-4121-be73-ef648a79d684)"><path d="M6.4-30.25Q8.25-24.75 10.6-18.18 12.95-11.6 14.9-6.8L14.9-6.8Q16.35-11.45 18.9-17.98 21.45-24.5 23.65-29.75L23.65-29.75Q24.3-31.3 25.85-31.3L25.85-31.3Q27.3-31.3 28.05-30.73 28.8-30.15 28.8-28.75L28.8-28.75Q28.8-28.2 28.65-27.8 28.5-27.4 28.2-26.75L28.2-26.75Q26.65-23.7 25.1-19.73 23.55-15.75 21.3-9.65L21.3-9.65Q21.4-9.9 19.9-5.9L19.9-5.9 18.25-1.6Q17.95-0.8 17.28-0.38 16.6 0.05 15.75 0.05L15.75 0.05Q14.9 0.05 13.88-0.38 12.85-0.8 12.4-1.25L12.4-1.25Q10.7-4.5 8.08-10.65 5.45-16.8 3.55-22L3.55-22 2.8-24.05Q2.05-26.15 1.7-27.28 1.35-28.4 1.35-29.1L1.35-29.1Q1.35-30.1 2.48-30.7 3.6-31.3 4.65-31.3L4.65-31.3Q5.2-31.3 5.7-31.05 6.2-30.8 6.4-30.25L6.4-30.25ZM55.85-0.75Q55.2-1.6 54.75-2.63 54.3-3.65 53.8-5.1L53.8-5.1Q53.7-5.35 53.22-6.6 52.75-7.85 52.15-8.75L52.15-8.75Q49-8.3 47-8.3L47-8.3Q45.9-8.3 44.57-8.38 43.25-8.45 42.6-8.45L42.6-8.45Q40.1-8.65 38.6-8.65L38.6-8.65Q38-7.85 37.57-6.95 37.15-6.05 36.5-4.25L36.5-4.25Q35.6-1.65 34.95-0.55L34.95-0.55Q34.5 0.2 33.2 0.2L33.2 0.2Q32.1 0.2 31.17-0.28 30.25-0.75 30.25-1.6L30.25-1.6Q30.65-3.5 31.52-5.63 32.4-7.75 34.05-11.3L34.05-11.3 36.05-16.2Q37.7-20.4 39.07-23.4 40.45-26.4 42.7-30.5L42.7-30.5Q43-31.1 43.7-31.53 44.4-31.95 45.25-31.95L45.25-31.95Q46.2-31.95 46.62-31.83 47.05-31.7 47.3-31.43 47.55-31.15 48.05-30.3L48.05-30.3Q49.75-27.65 50.97-24.85 52.2-22.05 54.1-17.1L54.1-17.1 55.15-14.45Q56.55-10.85 57.57-8.43 58.6-6 59.85-4L59.85-4Q60.65-2.7 60.65-2.2L60.65-2.2Q60.65-1 59.92-0.38 59.2 0.25 58.05 0.25L58.05 0.25Q56.6 0.25 55.85-0.75L55.85-0.75ZM50.7-12.85Q49.9-14.55 48.4-18.75L48.4-18.75Q46.85-23.25 45.3-25.9L45.3-25.9Q44.35-23.5 42.5-19.7L42.5-19.7Q41.25-17.35 39.65-12.9L39.65-12.9Q42.85-12.5 46.55-12.5L46.55-12.5Q49.2-12.5 50.7-12.85L50.7-12.85Z" opacity="1" transform="matrix(1,0,0,1,0,0)" fill="white" class="wordmark-text-0" id="SvgjsPath1851"></path></svg></g></svg></g><g transform="matrix(1,0,0,1,0,164.0602150984181)"><svg viewBox="0 0 244.43135999999998 27.994854047791453" height="27.994854047791453" width="244.43135999999998"><g transform="matrix(1,0,0,1,0,0)"><svg width="244.43135999999998" viewBox="0.45 -29.75 414.25 47.45" height="27.994854047791453" data-palette-color="url(#d66c829f-de8a-4785-8b25-4370a72ef83a)"><path d="M13.55-2.9L13.55-2.9Q13.7-2.9 13.7-2.6 13.7-2.3 13-1.6L13-1.6 12.5-0.85Q11.15 1.2 10.53 1.55 9.9 1.9 9.53 1.9 9.15 1.9 8.38 1.73 7.6 1.55 7.58 1.35 7.55 1.15 7.55 0.95L7.55 0.95Q7.55-1.5 12-10.1L12-10.1Q10.8-9.95 10.18-9.95 9.55-9.95 9.13-10.33 8.7-10.7 8.7-11.3 8.7-11.9 9.75-12.4 10.8-12.9 11.38-12.9 11.95-12.9 12.35-12.43 12.75-11.95 12.85-11.95L12.85-11.95 13-11.95Q14.05-13.85 14.9-15.45 15.75-17.05 15.75-17.53 15.75-18 15.6-18.25L15.6-18.25Q15.9-19.7 18.07-21.95 20.25-24.2 22.05-24.2L22.05-24.2Q22.85-24.2 24-23.58 25.15-22.95 25-21.95L25-21.95Q24.65-22.2 24.35-22.2L24.35-22.2Q20.95-22.2 15-12L15-12Q16.65-12.15 18.45-12.45L18.45-12.45Q24.45-13.2 25.25-13.2 26.05-13.2 26.28-13.18 26.5-13.15 26.68-13.05 26.85-12.95 26.9-12.85L26.9-12.85Q26.95-12.55 25.75-12.15L25.75-12.15Q22.85-11.2 14-10.25L14-10.25Q9.8-2.65 9.8-0.9L9.8-0.9Q9.8-0.05 10.53-0.28 11.25-0.5 11.8-1.2L11.8-1.2Q13.1-2.9 13.55-2.9ZM33.1-26.7L33.1-26.7Q34.55-28.3 35.85-28.3L35.85-28.3Q36.45-28.3 36.8-28 37.15-27.7 37.15-27.4 37.15-27.1 36.85-26.8 36.55-26.5 35.7-25.88 34.85-25.25 34.35-24.75L34.35-24.75Q31.95-22.4 31.95-20.7L31.95-20.7Q31.95-19.95 32.27-19.45 32.6-18.95 32.2-18.82 31.8-18.7 31.45-19.15L31.45-19.15Q31-19.45 31-21.15L31-21.15Q31-23.4 31.8-24.9L31.8-24.9Q31.9-25.05 32.13-25.43 32.35-25.8 32.5-25.95L32.5-25.95Q32.15-25.95 30.63-25.95 29.1-25.95 24.58-26.35 20.05-26.75 17.75-26.75 15.45-26.75 14.2-26.45L14.2-26.45Q9.45-25.8 6.03-23.83 2.6-21.85 1.95-18.85L1.95-18.85Q1.85-18.55 1.85-18.13 1.85-17.7 2.13-17.1 2.4-16.5 2.8-16.15 3.2-15.8 4.03-15.3 4.85-14.8 5.13-14.58 5.4-14.35 5.23-14.2 5.05-14.05 4.88-14.05 4.7-14.05 4.5-14.1L4.5-14.1Q2.8-14.6 1.63-15.98 0.45-17.35 0.45-18.28 0.45-19.2 0.7-19.85L0.7-19.85Q0.7-20.4 0.75-20.65L0.75-20.65Q1.5-24.2 5.3-26.15L5.3-26.15Q9.85-28.5 16.4-28.5L16.4-28.5Q20-28.5 25.25-27.65 30.5-26.8 33.1-26.7ZM35.1 1.25L35.1 1.25Q32.55 1.25 32.55-1.83 32.55-4.9 36.95-9.4L36.95-9.4Q37.3-9.75 37.45-9.95L37.45-9.95 37.8-10.45Q38.5-11.4 38.45-11.65L38.45-11.65 38.3-12.1Q38.1-12.7 36.65-12.98 35.2-13.25 34.3-13.25L34.3-13.25Q29.8-6.9 29.1-6 28.4-5.1 28.15-5.25 27.9-5.4 27.9-5.6 27.9-5.8 28.2-6.2L28.2-6.2Q30.9-9.5 32.85-13.25L32.85-13.25Q32.25-13.35 31.95-13.68 31.65-14 31.9-14.78 32.15-15.55 33.42-16.85 34.7-18.15 35.65-18.6 36.6-19.05 36.85-19.15 37.1-19.25 37.4-19.25L37.4-19.25Q38-19.25 37-17.45L37-17.45 35.05-14.35Q37.3-14.2 38.9-14.2L38.9-14.2 40.65-14.25Q41.5-14.25 41.9-14.03 42.3-13.8 42.1-13.25L42.1-13.25Q41.75-12.3 40.35-10.7L40.35-10.7Q37.35-7.2 35.85-3.25L35.85-3.25Q35.5-2.3 35.5-1.6L35.5-1.6Q35.5-0.15 36.55-0.15L36.55-0.15Q36.9-0.15 37.87-0.7 38.85-1.25 41.15-3.33 43.45-5.4 44.85-7.4L44.85-7.4Q45.05-7.65 45.32-7.53 45.6-7.4 45.6-7.28 45.6-7.15 45.5-7L45.5-7Q44.75-5.65 42.8-3.55 40.85-1.45 39-0.15L39-0.15Q37.2 1.25 35.1 1.25ZM54.6-5.5L54.6-5.5Q55.5-7.35 55.5-8.35 55.5-9.35 55.27-9.93 55.05-10.5 55.47-10.9 55.9-11.3 56.55-11.2L56.55-11.2Q57.55-10.95 57.55-8.95 57.55-6.95 55.2-3.7L55.2-3.7Q55.25-2.35 56.6-2.35 57.95-2.35 60.7-5.25L60.7-5.25Q62-6.75 62.32-7.2 62.65-7.65 62.9-7.53 63.15-7.4 63.15-7.3L63.15-7.3Q63.15-6.8 61.35-4.7L61.35-4.7Q58.5-1.2 56.3-1.2L56.3-1.2Q54.85-1.2 54.25-2.45L54.25-2.45Q53.25-1.4 52.3-0.5L52.3-0.5Q50.35 1.15 47.95 1.15L47.95 1.15Q46.6 1.15 45.7 0.5L45.7 0.5Q43.95-0.55 43.95-3.25L43.95-3.25Q43.95-6.2 45.95-9.25L45.95-9.25Q47.1-11.05 48.65-12.4L48.65-12.4Q51.1-14.55 53.3-14.55L53.3-14.55Q53.85-14.55 54.35-14.4L54.35-14.4Q55.85-13.9 55.85-12.5L55.85-12.5Q55.85-11.35 55.25-11.35L55.25-11.35Q55-11.45 55-12.1L55-12.1Q55-13 54-13L54-13Q52.25-13 49.5-9.8 46.75-6.6 46.2-3.35L46.2-3.35Q46.1-2.8 46.1-2.13 46.1-1.45 46.55-0.58 47 0.3 48.22 0.3 49.45 0.3 50.9-0.8 52.35-1.9 53.5-3.6L53.5-3.6 53.35-3.9Q53.15-4.7 53.55-5.2 53.95-5.7 54.6-5.5ZM75.69-14.2L75.69-14.2Q76.84-14.2 76.84-12.98 76.84-11.75 75.69-9.6 74.54-7.45 73.99-6.1L73.99-6.1Q73.04-3.8 73.04-2.43 73.04-1.05 73.44-0.6L73.44-0.6Q74.19 0.2 75.49-0.53 76.79-1.25 79.12-3.33 81.44-5.4 82.84-7.4L82.84-7.4Q83.04-7.65 83.32-7.53 83.59-7.4 83.59-7.28 83.59-7.15 83.49-7L83.49-7Q82.74-5.65 80.79-3.55 78.84-1.45 77.04-0.18 75.24 1.1 73.49 1.1L73.49 1.1Q71.79 1.05 71.09 0.33 70.39-0.4 70.39-1.5 70.39-2.6 70.59-3.63 70.79-4.65 71.34-6L71.34-6Q72.24-8.15 72.92-9.35 73.59-10.55 73.59-10.93 73.59-11.3 73.19-11.3L73.19-11.3Q72.39-11.3 70.14-9.35L70.14-9.35Q68.59-7.9 65.57-3.88 62.54 0.15 62.14 0.4L62.14 0.4Q60.34 1.3 59.89 1.3 59.44 1.3 59.44 1.15 59.44 1 59.54 0.73 59.64 0.45 60.52-2 61.39-4.45 62.42-7.38 63.44-10.3 63.67-10.9 63.89-11.5 63.97-11.93 64.04-12.35 64.14-12.65 64.24-12.95 64.52-13.33 64.79-13.7 65.24-13.73 65.69-13.75 66.39-13.63 67.09-13.5 67.09-13L67.09-13Q67.09-12.65 66.54-11.48 65.99-10.3 63.39-3.4L63.39-3.4Q65.19-5.6 67.94-8.47 70.69-11.35 72.59-12.85L72.59-12.85Q74.49-14.2 75.69-14.2ZM89.59-13.95L90.24-14Q94.09-14.35 94.92-14.35 95.74-14.35 95.74-14.1L95.74-14.1Q95.74-13.8 94.57-13.48 93.39-13.15 88.84-12.65L88.84-12.65Q88.59-12.2 88.24-11.6L88.24-11.6Q87.49-10.4 87.44-10.15L87.44-10.15Q84.59-4.45 84.44-2.9L84.44-2.9Q84.39-2.45 84.39-1.75 84.39-1.05 84.79-0.6L84.79-0.6Q85.49 0.2 86.79-0.5 88.09-1.2 90.42-3.3 92.74-5.4 94.19-7.4L94.19-7.4Q94.39-7.65 94.69-7.5L94.69-7.5Q95.44-7.15 92.09-3.55L92.09-3.55Q88.89-0.1 86.74 0.7L86.74 0.7Q85.49 1.15 84.64 1.15L84.64 1.15Q82.64 1.15 81.99-0.75L81.99-0.75Q81.89-1.1 81.89-1.6L81.89-1.6Q81.89-3.35 83.49-6.9L83.49-6.9Q83.24-6.35 81.54-4.4L81.54-4.4Q81.09-3.9 80.84-4.4L80.84-4.4Q80.79-4.5 80.79-4.67 80.79-4.85 80.99-5.1L80.99-5.1Q83.44-8.15 84.84-10.25L84.84-10.25Q84.84-10.3 85.94-12.35L85.94-12.35Q85.44-12.25 84.92-12.25 84.39-12.25 84.14-12.58 83.89-12.9 84.09-13.35L84.09-13.35Q84.44-14.15 86.74-14.25L86.74-14.25Q86.79-14.35 86.94-14.35L86.94-14.35 89.44-19Q89.64-19.4 89.89-19.83 90.14-20.25 90.27-20.48 90.39-20.7 90.54-20.95 90.69-21.2 90.79-21.3 90.89-21.4 90.99-21.5L90.99-21.5Q91.19-21.8 92.17-21.8 93.14-21.8 93.49-21.25L93.49-21.25Q93.64-21.05 93.64-20.58 93.64-20.1 93.29-19.53 92.94-18.95 92.54-18.7 92.14-18.45 91.99-18.15L91.99-18.15 89.59-13.95ZM116.04-14.55L116.04-14.55Q118.74-14.55 118.74-11.95L118.74-11.95Q118.74-10.6 117.99-9.75L117.99-9.75Q116.74-7.9 113.94-6.53 111.14-5.15 109.19-5L109.19-5Q108.49-4.95 108.44-5.4L108.44-5.4Q108.39-5.6 108.56-5.65 108.74-5.7 108.84-5.7L108.84-5.7Q109.99-5.8 111.79-6.8L111.79-6.8Q115.14-8.6 116.69-10.5L116.69-10.5Q117.34-11.4 117.34-12.23 117.34-13.05 116.54-13.05L116.54-13.05Q115.89-13.05 114.79-12.5L114.79-12.5Q112.44-11.4 109.84-8.68 107.24-5.95 106.44-3.35L106.44-3.35Q106.19-2.55 106.19-1.78 106.19-1 106.84-0.3 107.49 0.4 108.84 0.4L108.84 0.4Q110.34 0.4 112.29-0.4L112.29-0.4Q117.94-2.7 120.99-7.35L120.99-7.35Q121.29-7.75 121.54-7.5L121.54-7.5Q121.74-7.4 121.74-7.25 121.74-7.1 121.59-6.9L121.59-6.9Q120.09-4.4 117.79-2.45L117.79-2.45Q113.34 1.35 109.14 1.35L109.14 1.35Q105.54 1.35 104.09-0.8L104.09-0.8Q103.54-1.65 103.54-2.85 103.54-4.05 104.19-5.7L104.19-5.7Q105.44-8.55 109.54-11.55 113.64-14.55 116.04-14.55ZM134.33-14.2L134.33-14.2Q135.48-14.2 135.48-12.98 135.48-11.75 134.33-9.6 133.18-7.45 132.63-6.1L132.63-6.1Q131.68-3.8 131.68-2.43 131.68-1.05 132.08-0.6L132.08-0.6Q132.83 0.2 134.13-0.53 135.43-1.25 137.76-3.33 140.08-5.4 141.48-7.4L141.48-7.4Q141.68-7.65 141.96-7.53 142.23-7.4 142.23-7.28 142.23-7.15 142.13-7L142.13-7Q141.38-5.65 139.43-3.55 137.48-1.45 135.68-0.18 133.88 1.1 132.13 1.1L132.13 1.1Q130.43 1.05 129.73 0.33 129.03-0.4 129.03-1.5 129.03-2.6 129.23-3.63 129.43-4.65 129.98-6L129.98-6Q130.88-8.15 131.56-9.35 132.23-10.55 132.23-10.93 132.23-11.3 131.83-11.3L131.83-11.3Q131.03-11.3 128.78-9.35L128.78-9.35Q127.23-7.9 124.21-3.88 121.18 0.15 120.78 0.4L120.78 0.4Q118.98 1.3 118.53 1.3 118.08 1.3 118.08 1.15 118.08 1 118.18 0.73 118.28 0.45 119.16-2 120.03-4.45 121.06-7.38 122.08-10.3 122.31-10.9 122.53-11.5 122.61-11.93 122.68-12.35 122.78-12.65 122.88-12.95 123.16-13.33 123.43-13.7 123.88-13.73 124.33-13.75 125.03-13.63 125.73-13.5 125.73-13L125.73-13Q125.73-12.65 125.18-11.48 124.63-10.3 122.03-3.4L122.03-3.4Q123.83-5.6 126.58-8.47 129.33-11.35 131.23-12.85L131.23-12.85Q133.13-14.2 134.33-14.2ZM143.11-9.13Q145.33-11.1 147.73-12.5 150.13-13.9 151.53-14.25 152.93-14.6 154.28-14.6 155.63-14.6 156.83-13.7L156.83-13.7Q163.68-29.6 169.93-29.6L169.93-29.6Q172.03-29.6 172.78-28.4L172.78-28.4Q173.13-27.8 173.13-27.35L173.13-27.35Q173.13-26.1 172.06-24.18 170.98-22.25 168.73-19.95 166.48-17.65 162.28-14.28 158.08-10.9 157.63-10.5L157.63-10.5Q156.03-6.8 155.13-3.35 154.23 0.1 154.23 1.8 154.23 3.5 154.83 4.5L154.83 4.5Q155.13 5.15 155.73 5.28 156.33 5.4 156.76 5.13 157.18 4.85 157.41 4.65 157.63 4.45 157.96 4.28 158.28 4.1 158.43 4.2 158.58 4.3 158.38 4.75L158.38 4.75Q157.98 5.25 157.63 5.6L157.63 5.6Q156.83 6.15 155.76 6.15 154.68 6.15 154.33 6.1L154.33 6.1Q151.93 5.7 151.93 2.6L151.93 2.6Q151.93-0.4 152.73-2.95L152.73-2.95Q153.83-6.45 154.73-8.75L154.73-8.75Q146.73 0.55 143.38 0.55L143.38 0.55Q142.58 0.55 141.66 0.08 140.73-0.4 140.08-1.28 139.43-2.15 139.43-3.15 139.43-4.15 139.88-5.05L139.88-5.05Q140.88-7.15 143.11-9.13ZM155.73-11.2L156.43-12.9Q155.83-13.2 154.33-13.2 152.83-13.2 150.46-11.98 148.08-10.75 145.98-8.9L145.98-8.9Q144.23-7.25 142.91-5.18 141.58-3.1 141.58-2.15L141.58-2.15Q141.58-0.3 142.63-0.3 143.68-0.3 145.83-2L145.83-2Q151.38-6.55 155.73-11.2L155.73-11.2ZM171.08-25.5L171.08-25.5Q171.73-26.7 171.73-27.53 171.73-28.35 171.01-28.35 170.28-28.35 169.08-27.45L169.08-27.45Q163.58-23.25 159.13-13.4L159.13-13.4Q162.38-15.5 165.93-19 169.48-22.5 171.08-25.5ZM173.18 4.55L173.18 4.55Q169.23 4.55 169.23 1.75L169.23 1.75Q169.23-0.05 170.65-2.48 172.08-4.9 173.43-6.98 174.78-9.05 176.68-11.88 178.58-14.7 179.38-15.9L179.38-15.9Q184.73-23.55 186.03-26.15L186.03-26.15Q184.88-26.25 183.18-26.25L183.18-26.25Q177.23-26.25 173.28-23.9L173.28-23.9Q170.83-22.45 170.83-20.3L170.83-20.3Q170.83-19.6 171.23-19 171.63-18.4 172.03-18.15L172.03-18.15Q172.83-17.65 173.83-17.15L173.83-17.15Q174.43-16.7 174.03-16.6L174.03-16.6Q173.88-16.6 173.68-16.65L173.68-16.65Q172.53-16.9 171.18-18.1 169.83-19.3 169.78-20.85L169.78-20.85Q169.58-21.35 169.58-21.7L169.58-21.7Q169.58-23.85 171.25-25.43 172.93-27 175.58-27.6L175.58-27.6Q179.18-28.4 182-28.4 184.83-28.4 186.78-27.95L186.78-27.95Q186.93-28.7 186.73-29.15 186.53-29.6 187.08-29.7L187.08-29.7Q187.18-29.75 187.23-29.75L187.23-29.75Q187.78-29.75 188.08-28.95L188.08-28.95Q188.18-28.4 188.03-27.65L188.03-27.65Q188.93-27.4 189.85-27.03 190.78-26.65 191.23-25.93 191.68-25.2 190.93-25.25L190.93-25.25Q190.48-25.25 189.5-25.58 188.53-25.9 187.53-26L187.53-26Q185.98-21.5 181.78-15.25L181.78-15.25Q172.73-1.9 172.73 1.8L172.73 1.8Q172.73 3.45 174.33 3.45L174.33 3.45Q176.83 3.45 182.38-0.25L182.38-0.25Q190.93-6.2 196.88-14.6L196.88-14.6Q196.83-16 196.83-18 196.83-20 197.13-21.95L197.13-21.95Q197.28-23 198.25-23.9 199.23-24.8 199.73-24.8L199.73-24.8Q200.38-24.8 200.58-23.65L200.58-23.65 200.68-22.75Q200.68-22.3 200.68-21.85L200.68-21.85Q200.68-18 199.18-14.9L199.18-14.9Q199.18-14.7 199.18-14.45L199.18-14.45Q199.18-8.85 201.65-4.35 204.13 0.15 207.38 0.15L207.38 0.15Q210.18 0.15 212.33-2.75L212.33-2.75Q215.88-7.6 215.88-14.6L215.88-14.6Q215.88-20.95 213.08-23.95L213.08-23.95Q211.43-25.7 209.13-25.7L209.13-25.7Q207.23-25.7 205.88-24.7L205.88-24.7Q205.33-24.35 205.08-24.75 204.83-25.15 205.13-25.4L205.13-25.4Q207.78-27.35 210.18-27.35 212.58-27.35 214.13-26.25L214.13-26.25Q217.98-23.75 217.98-16.4L217.98-16.4Q217.98-13.25 217.08-10L217.08-10Q215.78-5.25 212.73-1.6 209.68 2.05 206.03 2.05L206.03 2.05Q205.98 2.05 205.93 2.05L205.93 2.05Q201.98 2.05 199.35-1.9 196.73-5.85 196.73-10.75L196.73-10.75Q196.73-11.35 196.78-12L196.78-12Q194.33-8.9 190.6-5.38 186.88-1.85 183.63 0.4L183.63 0.4Q178.03 4.55 173.18 4.55ZM232.62-14.55L232.62-14.55Q235.32-14.55 235.32-11.95L235.32-11.95Q235.32-10.6 234.57-9.75L234.57-9.75Q233.32-7.9 230.52-6.53 227.72-5.15 225.77-5L225.77-5Q225.07-4.95 225.02-5.4L225.02-5.4Q224.97-5.6 225.15-5.65 225.32-5.7 225.42-5.7L225.42-5.7Q226.57-5.8 228.37-6.8L228.37-6.8Q231.72-8.6 233.27-10.5L233.27-10.5Q233.92-11.4 233.92-12.23 233.92-13.05 233.12-13.05L233.12-13.05Q232.47-13.05 231.37-12.5L231.37-12.5Q229.02-11.4 226.42-8.68 223.82-5.95 223.02-3.35L223.02-3.35Q222.77-2.55 222.77-1.78 222.77-1 223.42-0.3 224.07 0.4 225.42 0.4L225.42 0.4Q226.92 0.4 228.87-0.4L228.87-0.4Q234.52-2.7 237.57-7.35L237.57-7.35Q237.87-7.75 238.12-7.5L238.12-7.5Q238.32-7.4 238.32-7.25 238.32-7.1 238.17-6.9L238.17-6.9Q236.67-4.4 234.37-2.45L234.37-2.45Q229.92 1.35 225.72 1.35L225.72 1.35Q222.12 1.35 220.67-0.8L220.67-0.8Q220.12-1.65 220.12-2.85 220.12-4.05 220.77-5.7L220.77-5.7Q222.02-8.55 226.12-11.55 230.22-14.55 232.62-14.55ZM251.02-13.5L251.02-13.5Q251.92-13.5 253.17-12.58 254.42-11.65 254.57-10.75L254.57-10.75Q254.62-10.4 254.62-10.1L254.62-10.1Q254.62-7.85 252.42-5.28 250.22-2.7 247.47-0.9L247.47-0.9Q243.22 2 239.02 2L239.02 2Q237.32 2 236.32 1.55L236.32 1.55Q235.52 1.15 238.32 1.15L238.32 1.15Q241.37 1.15 246.22-2.45L246.22-2.45Q250.92-5.75 251.92-10.35L251.92-10.35Q252.07-11.05 251.9-11.78 251.72-12.5 251.02-12.5L251.02-12.5Q248.77-12.5 245.12-9.35L245.12-9.35Q243.57-8.05 241.95-5.85 240.32-3.65 240.32-2.25L240.32-2.25Q240.32-2.05 240.4-1.83 240.47-1.6 240.22-1.1L240.22-1.1Q239.57 0.2 238.37-1.25L238.37-1.25Q238.07-2 238.07-2.8L238.07-2.8Q238.07-5.1 238.77-7.65L238.77-7.65Q238.57-7.45 237.9-6.43 237.22-5.4 236.32-4.4L236.32-4.4Q235.87-3.9 235.62-4.4L235.62-4.4Q235.57-4.5 235.57-4.67 235.57-4.85 235.77-5.1L235.77-5.1Q239.67-9.95 240.32-11.4L240.32-11.4Q241.22-13.9 243.07-17.93 244.92-21.95 246.47-24.35L246.47-24.35Q249.67-29.4 253.07-29.4L253.07-29.4Q253.67-29.4 254.32-29.25L254.32-29.25 255.32-28.9Q256.77-28.05 256.77-26.73 256.77-25.4 255.97-23.85L255.97-23.85Q254.67-21.2 250.37-17.18 246.07-13.15 242.02-10.35L242.02-10.35Q241.02-8.55 240.47-5.65L240.47-5.65Q242.32-8.4 245.3-10.95 248.27-13.5 251.02-13.5ZM249.42-18L249.42-18Q255.37-24 255.37-26.9L255.37-26.9Q255.37-28.1 254.47-28.1L254.47-28.1Q253.77-28.1 252.57-27.2L252.57-27.2Q247.42-23.25 242.57-12.35L242.57-12.35Q245.97-14.6 249.42-18ZM269.69-9.13Q271.92-11.1 274.32-12.5 276.72-13.9 278.12-14.25 279.52-14.6 280.87-14.6 282.22-14.6 283.42-13.7L283.42-13.7Q290.27-29.6 296.52-29.6L296.52-29.6Q298.62-29.6 299.37-28.4L299.37-28.4Q299.72-27.8 299.72-27.35L299.72-27.35Q299.72-26.1 298.64-24.18 297.57-22.25 295.32-19.95 293.07-17.65 288.87-14.28 284.67-10.9 284.22-10.5L284.22-10.5Q282.62-6.8 281.72-3.35 280.82 0.1 280.82 1.8 280.82 3.5 281.42 4.5L281.42 4.5Q281.72 5.15 282.32 5.28 282.92 5.4 283.34 5.13 283.77 4.85 283.99 4.65 284.22 4.45 284.54 4.28 284.87 4.1 285.02 4.2 285.17 4.3 284.97 4.75L284.97 4.75Q284.57 5.25 284.22 5.6L284.22 5.6Q283.42 6.15 282.34 6.15 281.27 6.15 280.92 6.1L280.92 6.1Q278.52 5.7 278.52 2.6L278.52 2.6Q278.52-0.4 279.32-2.95L279.32-2.95Q280.42-6.45 281.32-8.75L281.32-8.75Q273.32 0.55 269.97 0.55L269.97 0.55Q269.17 0.55 268.24 0.08 267.32-0.4 266.67-1.28 266.02-2.15 266.02-3.15 266.02-4.15 266.47-5.05L266.47-5.05Q267.47-7.15 269.69-9.13ZM282.32-11.2L283.02-12.9Q282.42-13.2 280.92-13.2 279.42-13.2 277.04-11.98 274.67-10.75 272.57-8.9L272.57-8.9Q270.82-7.25 269.49-5.18 268.17-3.1 268.17-2.15L268.17-2.15Q268.17-0.3 269.22-0.3 270.27-0.3 272.42-2L272.42-2Q277.97-6.55 282.32-11.2L282.32-11.2ZM297.67-25.5L297.67-25.5Q298.32-26.7 298.32-27.53 298.32-28.35 297.59-28.35 296.87-28.35 295.67-27.45L295.67-27.45Q290.17-23.25 285.72-13.4L285.72-13.4Q288.97-15.5 292.52-19 296.07-22.5 297.67-25.5ZM297.76-14.55L297.76-14.55Q300.46-14.55 300.46-11.95L300.46-11.95Q300.46-10.6 299.71-9.75L299.71-9.75Q298.46-7.9 295.66-6.53 292.86-5.15 290.91-5L290.91-5Q290.21-4.95 290.16-5.4L290.16-5.4Q290.11-5.6 290.29-5.65 290.46-5.7 290.56-5.7L290.56-5.7Q291.71-5.8 293.51-6.8L293.51-6.8Q296.86-8.6 298.41-10.5L298.41-10.5Q299.06-11.4 299.06-12.23 299.06-13.05 298.26-13.05L298.26-13.05Q297.61-13.05 296.51-12.5L296.51-12.5Q294.16-11.4 291.56-8.68 288.96-5.95 288.16-3.35L288.16-3.35Q287.91-2.55 287.91-1.78 287.91-1 288.56-0.3 289.21 0.4 290.56 0.4L290.56 0.4Q292.06 0.4 294.01-0.4L294.01-0.4Q299.66-2.7 302.71-7.35L302.71-7.35Q303.01-7.75 303.26-7.5L303.26-7.5Q303.46-7.4 303.46-7.25 303.46-7.1 303.31-6.9L303.31-6.9Q301.81-4.4 299.51-2.45L299.51-2.45Q295.06 1.35 290.86 1.35L290.86 1.35Q287.26 1.35 285.81-0.8L285.81-0.8Q285.26-1.65 285.26-2.85 285.26-4.05 285.91-5.7L285.91-5.7Q287.16-8.55 291.26-11.55 295.36-14.55 297.76-14.55ZM304.76-11.15L304.76-11.15Q304.76-13.55 303.36-13.55L303.36-13.55Q303.06-13.55 302.74-13.48 302.41-13.4 302.41-13.6 302.41-13.8 302.71-14.1L302.71-14.1Q303.01-14.35 304.76-14.5L304.76-14.5Q306.86-14.5 307.39-13.9 307.91-13.3 307.91-12.7 307.91-12.1 306.99-9.73 306.06-7.35 306.01-7.25L306.01-7.25Q304.51-2.75 304.66-1.6L304.66-1.6Q309.16-7.65 310.56-9.15L310.56-9.15Q313.51-12.4 314.76-13.6L314.76-13.6Q317.66-16.3 319.86-17.25L319.86-17.25Q320.51-17.5 321.01-17.5L321.01-17.5Q322.66-17.5 323.26-16.5L323.26-16.5Q323.46-16.25 323.46-16.03 323.46-15.8 323.31-15.5 323.16-15.2 322.76-15.53 322.36-15.85 320.96-15.85L320.96-15.85Q318.66-15.85 313.26-10.45L313.26-10.45Q310.01-7.1 307.29-3.45 304.56 0.2 304.36 1.75L304.36 1.75Q304.36 2.15 303.61 2.15 302.86 2.15 302.49 1.53 302.11 0.9 302.11 0.48 302.11 0.05 302.16-0.28 302.21-0.6 303.16-3.95 304.11-7.3 304.36-8.4L304.36-8.4Q303.76-7.4 302.71-5.95L302.71-5.95Q302.36-5.55 302.14-5.73 301.91-5.9 301.91-6.05 301.91-6.2 302.01-6.4L302.01-6.4Q304.11-9.25 304.76-11.15ZM329.46-14.55L329.46-14.55Q332.16-14.55 332.16-11.95L332.16-11.95Q332.16-10.6 331.41-9.75L331.41-9.75Q330.16-7.9 327.36-6.53 324.56-5.15 322.61-5L322.61-5Q321.91-4.95 321.86-5.4L321.86-5.4Q321.81-5.6 321.98-5.65 322.16-5.7 322.26-5.7L322.26-5.7Q323.41-5.8 325.21-6.8L325.21-6.8Q328.56-8.6 330.11-10.5L330.11-10.5Q330.76-11.4 330.76-12.23 330.76-13.05 329.96-13.05L329.96-13.05Q329.31-13.05 328.21-12.5L328.21-12.5Q325.86-11.4 323.26-8.68 320.66-5.95 319.86-3.35L319.86-3.35Q319.61-2.55 319.61-1.78 319.61-1 320.26-0.3 320.91 0.4 322.26 0.4L322.26 0.4Q323.76 0.4 325.71-0.4L325.71-0.4Q331.36-2.7 334.41-7.35L334.41-7.35Q334.71-7.75 334.96-7.5L334.96-7.5Q335.16-7.4 335.16-7.25 335.16-7.1 335.01-6.9L335.01-6.9Q333.51-4.4 331.21-2.45L331.21-2.45Q326.76 1.35 322.56 1.35L322.56 1.35Q318.96 1.35 317.51-0.8L317.51-0.8Q316.96-1.65 316.96-2.85 316.96-4.05 317.61-5.7L317.61-5.7Q318.86-8.55 322.96-11.55 327.06-14.55 329.46-14.55ZM351.21-25.5L351.21-25.5Q351.81-26.6 351.81-27.2L351.81-27.2Q351.81-28.25 350.96-28.25L350.96-28.25Q350.25-28.25 349.21-27.45L349.21-27.45Q345.21-24.35 341.46-17.65L341.46-17.65Q338.46-12.25 337.06-8.4L337.06-8.4Q340.5-10.75 344.78-16.05 349.06-21.35 351.21-25.5ZM336.31-6.4L336.31-6.4Q335.71-4.7 335.66-4.13 335.61-3.55 335.61-2.58 335.61-1.6 336.11-0.8L336.11-0.8Q336.96 0.55 338.96-0.6L338.96-0.6Q340.46-1.4 342.75-3.53 345.06-5.65 346.31-7.4L346.31-7.4Q346.41-7.55 346.61-7.55L346.61-7.55Q347.06-7.55 346.86-6.9L346.86-6.9Q346.11-5.55 344.08-3.45 342.06-1.35 340.41-0.13 338.75 1.1 337.11 1.1L337.11 1.1Q333.31 1.1 333.31-2.6L333.31-2.6Q333.31-2.75 333.31-2.9L333.31-2.9Q333.5-6.4 336.86-13.48 340.21-20.55 342.91-24.15L342.91-24.15 344.46-26.1Q345-26.75 346.06-27.7L346.06-27.7Q348.06-29.6 350.18-29.6 352.31-29.6 353.06-28.3L353.06-28.3Q353.31-27.85 353.31-27 353.31-26.15 352.56-24.6L352.56-24.6Q347.41-15.65 336.31-6.4ZM355.95-5.5L355.95-5.5Q356.85-7.35 356.85-8.35 356.85-9.35 356.63-9.93 356.4-10.5 356.83-10.9 357.25-11.3 357.9-11.2L357.9-11.2Q358.9-10.95 358.9-8.95 358.9-6.95 356.55-3.7L356.55-3.7Q356.6-2.35 357.95-2.35 359.3-2.35 362.05-5.25L362.05-5.25Q363.35-6.75 363.68-7.2 364-7.65 364.25-7.53 364.5-7.4 364.5-7.3L364.5-7.3Q364.5-6.8 362.7-4.7L362.7-4.7Q359.85-1.2 357.65-1.2L357.65-1.2Q356.2-1.2 355.6-2.45L355.6-2.45Q354.6-1.4 353.65-0.5L353.65-0.5Q351.7 1.15 349.3 1.15L349.3 1.15Q347.95 1.15 347.05 0.5L347.05 0.5Q345.3-0.55 345.3-3.25L345.3-3.25Q345.3-6.2 347.3-9.25L347.3-9.25Q348.45-11.05 350-12.4L350-12.4Q352.45-14.55 354.65-14.55L354.65-14.55Q355.2-14.55 355.7-14.4L355.7-14.4Q357.2-13.9 357.2-12.5L357.2-12.5Q357.2-11.35 356.6-11.35L356.6-11.35Q356.35-11.45 356.35-12.1L356.35-12.1Q356.35-13 355.35-13L355.35-13Q353.6-13 350.85-9.8 348.1-6.6 347.55-3.35L347.55-3.35Q347.45-2.8 347.45-2.13 347.45-1.45 347.9-0.58 348.35 0.3 349.58 0.3 350.8 0.3 352.25-0.8 353.7-1.9 354.85-3.6L354.85-3.6 354.7-3.9Q354.5-4.7 354.9-5.2 355.3-5.7 355.95-5.5ZM378.8-10.4L378.8-10.4Q378.8-8.2 377-5.93 375.2-3.65 372.75-1.95L372.75-1.95Q370.5-0.5 368.18 0.3 365.85 1.1 364.68 1.1 363.5 1.1 362.75 0.85L362.75 0.85Q361.65 3.4 359.7 9.4L359.7 9.4Q359.5 10.05 359.48 11.03 359.45 12 358.88 13.68 358.3 15.35 357.75 16.35L357.75 16.35Q357.5 16.95 356.3 17.32 355.1 17.7 354.6 17.7 354.1 17.7 354.1 17.2L354.1 17.2Q354.1 17 354.25 16.65L354.25 16.65Q356.55 11.95 360.05 2.83 363.55-6.3 363.9-7.3 364.25-8.3 364.9-10.2L364.9-10.2Q366-13.4 366.1-15L366.1-15Q366.1-15.6 367.7-15.6 369.3-15.6 369.3-14.45L369.3-14.45Q369.3-13.6 368.33-12.08 367.35-10.55 365.45-6L365.45-6Q368.35-10.4 370.15-11.75L370.15-11.75Q372.55-13.7 374.8-13.7L374.8-13.7Q375.7-13.7 376.6-13.4L376.6-13.4Q378.55-12.7 378.75-11.15L378.75-11.15Q378.8-10.75 378.8-10.4ZM376.35-11.1L376.35-11.1Q376.35-12.85 375-12.85L375-12.85Q374.2-12.85 372.4-11.9 370.6-10.95 368.8-9.05 367-7.15 366.03-5.48 365.05-3.8 364.2-2.02 363.35-0.25 363.2 0.05L363.2 0.05Q366.25 0.05 369.9-2.6 373.55-5.25 375.35-8.35L375.35-8.35Q376.35-9.9 376.35-11.1ZM393.2-14.55L393.2-14.55Q395.9-14.55 395.9-11.95L395.9-11.95Q395.9-10.6 395.15-9.75L395.15-9.75Q393.9-7.9 391.1-6.53 388.3-5.15 386.35-5L386.35-5Q385.65-4.95 385.6-5.4L385.6-5.4Q385.55-5.6 385.72-5.65 385.9-5.7 386-5.7L386-5.7Q387.15-5.8 388.95-6.8L388.95-6.8Q392.3-8.6 393.85-10.5L393.85-10.5Q394.5-11.4 394.5-12.23 394.5-13.05 393.7-13.05L393.7-13.05Q393.05-13.05 391.95-12.5L391.95-12.5Q389.6-11.4 387-8.68 384.4-5.95 383.6-3.35L383.6-3.35Q383.35-2.55 383.35-1.78 383.35-1 384-0.3 384.65 0.4 386 0.4L386 0.4Q387.5 0.4 389.45-0.4L389.45-0.4Q395.1-2.7 398.15-7.35L398.15-7.35Q398.45-7.75 398.7-7.5L398.7-7.5Q398.9-7.4 398.9-7.25 398.9-7.1 398.75-6.9L398.75-6.9Q397.25-4.4 394.95-2.45L394.95-2.45Q390.5 1.35 386.3 1.35L386.3 1.35Q382.7 1.35 381.25-0.8L381.25-0.8Q380.7-1.65 380.7-2.85 380.7-4.05 381.35-5.7L381.35-5.7Q382.6-8.55 386.7-11.55 390.8-14.55 393.2-14.55ZM404.2 1.25L404.2 1.25Q401.65 1.25 401.65-1.83 401.65-4.9 406.05-9.4L406.05-9.4Q406.4-9.75 406.55-9.95L406.55-9.95 406.9-10.45Q407.6-11.4 407.55-11.65L407.55-11.65 407.4-12.1Q407.2-12.7 405.75-12.98 404.3-13.25 403.4-13.25L403.4-13.25Q398.9-6.9 398.2-6 397.5-5.1 397.25-5.25 397-5.4 397-5.6 397-5.8 397.3-6.2L397.3-6.2Q400-9.5 401.95-13.25L401.95-13.25Q401.35-13.35 401.05-13.68 400.75-14 401-14.78 401.25-15.55 402.52-16.85 403.8-18.15 404.75-18.6 405.7-19.05 405.95-19.15 406.2-19.25 406.5-19.25L406.5-19.25Q407.1-19.25 406.1-17.45L406.1-17.45 404.15-14.35Q406.4-14.2 408-14.2L408-14.2 409.75-14.25Q410.6-14.25 411-14.03 411.4-13.8 411.2-13.25L411.2-13.25Q410.85-12.3 409.45-10.7L409.45-10.7Q406.45-7.2 404.95-3.25L404.95-3.25Q404.6-2.3 404.6-1.6L404.6-1.6Q404.6-0.15 405.65-0.15L405.65-0.15Q406-0.15 406.97-0.7 407.95-1.25 410.25-3.33 412.55-5.4 413.95-7.4L413.95-7.4Q414.15-7.65 414.42-7.53 414.7-7.4 414.7-7.28 414.7-7.15 414.6-7L414.6-7Q413.85-5.65 411.9-3.55 409.95-1.45 408.1-0.15L408.1-0.15Q406.3 1.25 404.2 1.25Z" opacity="1" transform="matrix(1,0,0,1,0,0)" fill="black" class="slogan-text-1" id="SvgjsPath1850"></path></svg></g></svg></g></svg></g></svg></g><g></g></svg></g></svg></g></svg></g><path d="M0 41.215L0 1 194.432 1 194.432 41.215 184.911 41.215 184.911 10.521 9.521 10.521 9.521 41.215 0 41.215M0 205.985L0 246.2 194.432 246.2 194.432 205.985 184.911 205.985 184.911 236.679 9.521 236.679 9.521 205.985 0 205.985" fill="white" stroke="transparent"></path></svg></g><defs><mask></mask></defs></svg><rect width="194.4321556346329" height="247.2" fill="black" stroke="none" visibility="hidden"></rect></g></mask><linearGradient x1="0" x2="1" y1="0.5" y2="0.5" id="658d7b1d-98c7-4121-be73-ef648a79d684"><stop stop-color="#ffa62e" offset="0"></stop><stop stop-color="#f71b3d" offset="1"></stop></linearGradient><rect width="194.4321556346329" height="247.2" fill="url(#658d7b1d-98c7-4121-be73-ef648a79d684)" mask="url(#b189ac9a-e751-4c16-8508-2795e38267a0)" data-fill-palette-color="primary"></rect><mask id="80bc16f3-d2c4-4cdb-843e-b4de87e7dc5c"><g id="SvgjsG1863"><svg viewBox="0 0 194.4321556346329 247.2" height="247.2" width="194.4321556346329"><g><svg></svg></g><g><svg viewBox="0 0 194.4321556346329 247.2" height="247.2" width="194.4321556346329"><g transform="matrix(1,0,0,1,0,47.215199999999996)"><svg viewBox="0 0 194.4321556346329 152.7696" height="152.7696" width="194.4321556346329"><g><svg viewBox="0 0 194.4321556346329 152.7696" height="152.7696" width="194.4321556346329"><g><svg viewBox="0 0 244.43135999999998 192.05506914620955" height="152.7696" width="194.4321556346329"><g><svg viewBox="0 0 244.43135999999998 192.05506914620955" height="192.05506914620955" width="244.43135999999998"><g id="SvgjsG1862"><svg viewBox="0 0 244.43135999999998 192.05506914620955" height="192.05506914620955" width="244.43135999999998" id="SvgjsSvg1861"><g><svg viewBox="0 0 244.43135999999998 132.72664067453627" height="132.72664067453627" width="244.43135999999998"><g transform="matrix(1,0,0,1,0,0)"><svg width="244.43135999999998" viewBox="1.35 -31.95 59.3 32.2" height="132.72664067453627" data-palette-color="url(#658d7b1d-98c7-4121-be73-ef648a79d684)"></svg></g></svg></g><g transform="matrix(1,0,0,1,0,164.0602150984181)"><svg viewBox="0 0 244.43135999999998 27.994854047791453" height="27.994854047791453" width="244.43135999999998"><g transform="matrix(1,0,0,1,0,0)"><svg width="244.43135999999998" viewBox="0.45 -29.75 414.25 47.45" height="27.994854047791453" data-palette-color="url(#d66c829f-de8a-4785-8b25-4370a72ef83a)"><path d="M13.55-2.9L13.55-2.9Q13.7-2.9 13.7-2.6 13.7-2.3 13-1.6L13-1.6 12.5-0.85Q11.15 1.2 10.53 1.55 9.9 1.9 9.53 1.9 9.15 1.9 8.38 1.73 7.6 1.55 7.58 1.35 7.55 1.15 7.55 0.95L7.55 0.95Q7.55-1.5 12-10.1L12-10.1Q10.8-9.95 10.18-9.95 9.55-9.95 9.13-10.33 8.7-10.7 8.7-11.3 8.7-11.9 9.75-12.4 10.8-12.9 11.38-12.9 11.95-12.9 12.35-12.43 12.75-11.95 12.85-11.95L12.85-11.95 13-11.95Q14.05-13.85 14.9-15.45 15.75-17.05 15.75-17.53 15.75-18 15.6-18.25L15.6-18.25Q15.9-19.7 18.07-21.95 20.25-24.2 22.05-24.2L22.05-24.2Q22.85-24.2 24-23.58 25.15-22.95 25-21.95L25-21.95Q24.65-22.2 24.35-22.2L24.35-22.2Q20.95-22.2 15-12L15-12Q16.65-12.15 18.45-12.45L18.45-12.45Q24.45-13.2 25.25-13.2 26.05-13.2 26.28-13.18 26.5-13.15 26.68-13.05 26.85-12.95 26.9-12.85L26.9-12.85Q26.95-12.55 25.75-12.15L25.75-12.15Q22.85-11.2 14-10.25L14-10.25Q9.8-2.65 9.8-0.9L9.8-0.9Q9.8-0.05 10.53-0.28 11.25-0.5 11.8-1.2L11.8-1.2Q13.1-2.9 13.55-2.9ZM33.1-26.7L33.1-26.7Q34.55-28.3 35.85-28.3L35.85-28.3Q36.45-28.3 36.8-28 37.15-27.7 37.15-27.4 37.15-27.1 36.85-26.8 36.55-26.5 35.7-25.88 34.85-25.25 34.35-24.75L34.35-24.75Q31.95-22.4 31.95-20.7L31.95-20.7Q31.95-19.95 32.27-19.45 32.6-18.95 32.2-18.82 31.8-18.7 31.45-19.15L31.45-19.15Q31-19.45 31-21.15L31-21.15Q31-23.4 31.8-24.9L31.8-24.9Q31.9-25.05 32.13-25.43 32.35-25.8 32.5-25.95L32.5-25.95Q32.15-25.95 30.63-25.95 29.1-25.95 24.58-26.35 20.05-26.75 17.75-26.75 15.45-26.75 14.2-26.45L14.2-26.45Q9.45-25.8 6.03-23.83 2.6-21.85 1.95-18.85L1.95-18.85Q1.85-18.55 1.85-18.13 1.85-17.7 2.13-17.1 2.4-16.5 2.8-16.15 3.2-15.8 4.03-15.3 4.85-14.8 5.13-14.58 5.4-14.35 5.23-14.2 5.05-14.05 4.88-14.05 4.7-14.05 4.5-14.1L4.5-14.1Q2.8-14.6 1.63-15.98 0.45-17.35 0.45-18.28 0.45-19.2 0.7-19.85L0.7-19.85Q0.7-20.4 0.75-20.65L0.75-20.65Q1.5-24.2 5.3-26.15L5.3-26.15Q9.85-28.5 16.4-28.5L16.4-28.5Q20-28.5 25.25-27.65 30.5-26.8 33.1-26.7ZM35.1 1.25L35.1 1.25Q32.55 1.25 32.55-1.83 32.55-4.9 36.95-9.4L36.95-9.4Q37.3-9.75 37.45-9.95L37.45-9.95 37.8-10.45Q38.5-11.4 38.45-11.65L38.45-11.65 38.3-12.1Q38.1-12.7 36.65-12.98 35.2-13.25 34.3-13.25L34.3-13.25Q29.8-6.9 29.1-6 28.4-5.1 28.15-5.25 27.9-5.4 27.9-5.6 27.9-5.8 28.2-6.2L28.2-6.2Q30.9-9.5 32.85-13.25L32.85-13.25Q32.25-13.35 31.95-13.68 31.65-14 31.9-14.78 32.15-15.55 33.42-16.85 34.7-18.15 35.65-18.6 36.6-19.05 36.85-19.15 37.1-19.25 37.4-19.25L37.4-19.25Q38-19.25 37-17.45L37-17.45 35.05-14.35Q37.3-14.2 38.9-14.2L38.9-14.2 40.65-14.25Q41.5-14.25 41.9-14.03 42.3-13.8 42.1-13.25L42.1-13.25Q41.75-12.3 40.35-10.7L40.35-10.7Q37.35-7.2 35.85-3.25L35.85-3.25Q35.5-2.3 35.5-1.6L35.5-1.6Q35.5-0.15 36.55-0.15L36.55-0.15Q36.9-0.15 37.87-0.7 38.85-1.25 41.15-3.33 43.45-5.4 44.85-7.4L44.85-7.4Q45.05-7.65 45.32-7.53 45.6-7.4 45.6-7.28 45.6-7.15 45.5-7L45.5-7Q44.75-5.65 42.8-3.55 40.85-1.45 39-0.15L39-0.15Q37.2 1.25 35.1 1.25ZM54.6-5.5L54.6-5.5Q55.5-7.35 55.5-8.35 55.5-9.35 55.27-9.93 55.05-10.5 55.47-10.9 55.9-11.3 56.55-11.2L56.55-11.2Q57.55-10.95 57.55-8.95 57.55-6.95 55.2-3.7L55.2-3.7Q55.25-2.35 56.6-2.35 57.95-2.35 60.7-5.25L60.7-5.25Q62-6.75 62.32-7.2 62.65-7.65 62.9-7.53 63.15-7.4 63.15-7.3L63.15-7.3Q63.15-6.8 61.35-4.7L61.35-4.7Q58.5-1.2 56.3-1.2L56.3-1.2Q54.85-1.2 54.25-2.45L54.25-2.45Q53.25-1.4 52.3-0.5L52.3-0.5Q50.35 1.15 47.95 1.15L47.95 1.15Q46.6 1.15 45.7 0.5L45.7 0.5Q43.95-0.55 43.95-3.25L43.95-3.25Q43.95-6.2 45.95-9.25L45.95-9.25Q47.1-11.05 48.65-12.4L48.65-12.4Q51.1-14.55 53.3-14.55L53.3-14.55Q53.85-14.55 54.35-14.4L54.35-14.4Q55.85-13.9 55.85-12.5L55.85-12.5Q55.85-11.35 55.25-11.35L55.25-11.35Q55-11.45 55-12.1L55-12.1Q55-13 54-13L54-13Q52.25-13 49.5-9.8 46.75-6.6 46.2-3.35L46.2-3.35Q46.1-2.8 46.1-2.13 46.1-1.45 46.55-0.58 47 0.3 48.22 0.3 49.45 0.3 50.9-0.8 52.35-1.9 53.5-3.6L53.5-3.6 53.35-3.9Q53.15-4.7 53.55-5.2 53.95-5.7 54.6-5.5ZM75.69-14.2L75.69-14.2Q76.84-14.2 76.84-12.98 76.84-11.75 75.69-9.6 74.54-7.45 73.99-6.1L73.99-6.1Q73.04-3.8 73.04-2.43 73.04-1.05 73.44-0.6L73.44-0.6Q74.19 0.2 75.49-0.53 76.79-1.25 79.12-3.33 81.44-5.4 82.84-7.4L82.84-7.4Q83.04-7.65 83.32-7.53 83.59-7.4 83.59-7.28 83.59-7.15 83.49-7L83.49-7Q82.74-5.65 80.79-3.55 78.84-1.45 77.04-0.18 75.24 1.1 73.49 1.1L73.49 1.1Q71.79 1.05 71.09 0.33 70.39-0.4 70.39-1.5 70.39-2.6 70.59-3.63 70.79-4.65 71.34-6L71.34-6Q72.24-8.15 72.92-9.35 73.59-10.55 73.59-10.93 73.59-11.3 73.19-11.3L73.19-11.3Q72.39-11.3 70.14-9.35L70.14-9.35Q68.59-7.9 65.57-3.88 62.54 0.15 62.14 0.4L62.14 0.4Q60.34 1.3 59.89 1.3 59.44 1.3 59.44 1.15 59.44 1 59.54 0.73 59.64 0.45 60.52-2 61.39-4.45 62.42-7.38 63.44-10.3 63.67-10.9 63.89-11.5 63.97-11.93 64.04-12.35 64.14-12.65 64.24-12.95 64.52-13.33 64.79-13.7 65.24-13.73 65.69-13.75 66.39-13.63 67.09-13.5 67.09-13L67.09-13Q67.09-12.65 66.54-11.48 65.99-10.3 63.39-3.4L63.39-3.4Q65.19-5.6 67.94-8.47 70.69-11.35 72.59-12.85L72.59-12.85Q74.49-14.2 75.69-14.2ZM89.59-13.95L90.24-14Q94.09-14.35 94.92-14.35 95.74-14.35 95.74-14.1L95.74-14.1Q95.74-13.8 94.57-13.48 93.39-13.15 88.84-12.65L88.84-12.65Q88.59-12.2 88.24-11.6L88.24-11.6Q87.49-10.4 87.44-10.15L87.44-10.15Q84.59-4.45 84.44-2.9L84.44-2.9Q84.39-2.45 84.39-1.75 84.39-1.05 84.79-0.6L84.79-0.6Q85.49 0.2 86.79-0.5 88.09-1.2 90.42-3.3 92.74-5.4 94.19-7.4L94.19-7.4Q94.39-7.65 94.69-7.5L94.69-7.5Q95.44-7.15 92.09-3.55L92.09-3.55Q88.89-0.1 86.74 0.7L86.74 0.7Q85.49 1.15 84.64 1.15L84.64 1.15Q82.64 1.15 81.99-0.75L81.99-0.75Q81.89-1.1 81.89-1.6L81.89-1.6Q81.89-3.35 83.49-6.9L83.49-6.9Q83.24-6.35 81.54-4.4L81.54-4.4Q81.09-3.9 80.84-4.4L80.84-4.4Q80.79-4.5 80.79-4.67 80.79-4.85 80.99-5.1L80.99-5.1Q83.44-8.15 84.84-10.25L84.84-10.25Q84.84-10.3 85.94-12.35L85.94-12.35Q85.44-12.25 84.92-12.25 84.39-12.25 84.14-12.58 83.89-12.9 84.09-13.35L84.09-13.35Q84.44-14.15 86.74-14.25L86.74-14.25Q86.79-14.35 86.94-14.35L86.94-14.35 89.44-19Q89.64-19.4 89.89-19.83 90.14-20.25 90.27-20.48 90.39-20.7 90.54-20.95 90.69-21.2 90.79-21.3 90.89-21.4 90.99-21.5L90.99-21.5Q91.19-21.8 92.17-21.8 93.14-21.8 93.49-21.25L93.49-21.25Q93.64-21.05 93.64-20.58 93.64-20.1 93.29-19.53 92.94-18.95 92.54-18.7 92.14-18.45 91.99-18.15L91.99-18.15 89.59-13.95ZM116.04-14.55L116.04-14.55Q118.74-14.55 118.74-11.95L118.74-11.95Q118.74-10.6 117.99-9.75L117.99-9.75Q116.74-7.9 113.94-6.53 111.14-5.15 109.19-5L109.19-5Q108.49-4.95 108.44-5.4L108.44-5.4Q108.39-5.6 108.56-5.65 108.74-5.7 108.84-5.7L108.84-5.7Q109.99-5.8 111.79-6.8L111.79-6.8Q115.14-8.6 116.69-10.5L116.69-10.5Q117.34-11.4 117.34-12.23 117.34-13.05 116.54-13.05L116.54-13.05Q115.89-13.05 114.79-12.5L114.79-12.5Q112.44-11.4 109.84-8.68 107.24-5.95 106.44-3.35L106.44-3.35Q106.19-2.55 106.19-1.78 106.19-1 106.84-0.3 107.49 0.4 108.84 0.4L108.84 0.4Q110.34 0.4 112.29-0.4L112.29-0.4Q117.94-2.7 120.99-7.35L120.99-7.35Q121.29-7.75 121.54-7.5L121.54-7.5Q121.74-7.4 121.74-7.25 121.74-7.1 121.59-6.9L121.59-6.9Q120.09-4.4 117.79-2.45L117.79-2.45Q113.34 1.35 109.14 1.35L109.14 1.35Q105.54 1.35 104.09-0.8L104.09-0.8Q103.54-1.65 103.54-2.85 103.54-4.05 104.19-5.7L104.19-5.7Q105.44-8.55 109.54-11.55 113.64-14.55 116.04-14.55ZM134.33-14.2L134.33-14.2Q135.48-14.2 135.48-12.98 135.48-11.75 134.33-9.6 133.18-7.45 132.63-6.1L132.63-6.1Q131.68-3.8 131.68-2.43 131.68-1.05 132.08-0.6L132.08-0.6Q132.83 0.2 134.13-0.53 135.43-1.25 137.76-3.33 140.08-5.4 141.48-7.4L141.48-7.4Q141.68-7.65 141.96-7.53 142.23-7.4 142.23-7.28 142.23-7.15 142.13-7L142.13-7Q141.38-5.65 139.43-3.55 137.48-1.45 135.68-0.18 133.88 1.1 132.13 1.1L132.13 1.1Q130.43 1.05 129.73 0.33 129.03-0.4 129.03-1.5 129.03-2.6 129.23-3.63 129.43-4.65 129.98-6L129.98-6Q130.88-8.15 131.56-9.35 132.23-10.55 132.23-10.93 132.23-11.3 131.83-11.3L131.83-11.3Q131.03-11.3 128.78-9.35L128.78-9.35Q127.23-7.9 124.21-3.88 121.18 0.15 120.78 0.4L120.78 0.4Q118.98 1.3 118.53 1.3 118.08 1.3 118.08 1.15 118.08 1 118.18 0.73 118.28 0.45 119.16-2 120.03-4.45 121.06-7.38 122.08-10.3 122.31-10.9 122.53-11.5 122.61-11.93 122.68-12.35 122.78-12.65 122.88-12.95 123.16-13.33 123.43-13.7 123.88-13.73 124.33-13.75 125.03-13.63 125.73-13.5 125.73-13L125.73-13Q125.73-12.65 125.18-11.48 124.63-10.3 122.03-3.4L122.03-3.4Q123.83-5.6 126.58-8.47 129.33-11.35 131.23-12.85L131.23-12.85Q133.13-14.2 134.33-14.2ZM143.11-9.13Q145.33-11.1 147.73-12.5 150.13-13.9 151.53-14.25 152.93-14.6 154.28-14.6 155.63-14.6 156.83-13.7L156.83-13.7Q163.68-29.6 169.93-29.6L169.93-29.6Q172.03-29.6 172.78-28.4L172.78-28.4Q173.13-27.8 173.13-27.35L173.13-27.35Q173.13-26.1 172.06-24.18 170.98-22.25 168.73-19.95 166.48-17.65 162.28-14.28 158.08-10.9 157.63-10.5L157.63-10.5Q156.03-6.8 155.13-3.35 154.23 0.1 154.23 1.8 154.23 3.5 154.83 4.5L154.83 4.5Q155.13 5.15 155.73 5.28 156.33 5.4 156.76 5.13 157.18 4.85 157.41 4.65 157.63 4.45 157.96 4.28 158.28 4.1 158.43 4.2 158.58 4.3 158.38 4.75L158.38 4.75Q157.98 5.25 157.63 5.6L157.63 5.6Q156.83 6.15 155.76 6.15 154.68 6.15 154.33 6.1L154.33 6.1Q151.93 5.7 151.93 2.6L151.93 2.6Q151.93-0.4 152.73-2.95L152.73-2.95Q153.83-6.45 154.73-8.75L154.73-8.75Q146.73 0.55 143.38 0.55L143.38 0.55Q142.58 0.55 141.66 0.08 140.73-0.4 140.08-1.28 139.43-2.15 139.43-3.15 139.43-4.15 139.88-5.05L139.88-5.05Q140.88-7.15 143.11-9.13ZM155.73-11.2L156.43-12.9Q155.83-13.2 154.33-13.2 152.83-13.2 150.46-11.98 148.08-10.75 145.98-8.9L145.98-8.9Q144.23-7.25 142.91-5.18 141.58-3.1 141.58-2.15L141.58-2.15Q141.58-0.3 142.63-0.3 143.68-0.3 145.83-2L145.83-2Q151.38-6.55 155.73-11.2L155.73-11.2ZM171.08-25.5L171.08-25.5Q171.73-26.7 171.73-27.53 171.73-28.35 171.01-28.35 170.28-28.35 169.08-27.45L169.08-27.45Q163.58-23.25 159.13-13.4L159.13-13.4Q162.38-15.5 165.93-19 169.48-22.5 171.08-25.5ZM173.18 4.55L173.18 4.55Q169.23 4.55 169.23 1.75L169.23 1.75Q169.23-0.05 170.65-2.48 172.08-4.9 173.43-6.98 174.78-9.05 176.68-11.88 178.58-14.7 179.38-15.9L179.38-15.9Q184.73-23.55 186.03-26.15L186.03-26.15Q184.88-26.25 183.18-26.25L183.18-26.25Q177.23-26.25 173.28-23.9L173.28-23.9Q170.83-22.45 170.83-20.3L170.83-20.3Q170.83-19.6 171.23-19 171.63-18.4 172.03-18.15L172.03-18.15Q172.83-17.65 173.83-17.15L173.83-17.15Q174.43-16.7 174.03-16.6L174.03-16.6Q173.88-16.6 173.68-16.65L173.68-16.65Q172.53-16.9 171.18-18.1 169.83-19.3 169.78-20.85L169.78-20.85Q169.58-21.35 169.58-21.7L169.58-21.7Q169.58-23.85 171.25-25.43 172.93-27 175.58-27.6L175.58-27.6Q179.18-28.4 182-28.4 184.83-28.4 186.78-27.95L186.78-27.95Q186.93-28.7 186.73-29.15 186.53-29.6 187.08-29.7L187.08-29.7Q187.18-29.75 187.23-29.75L187.23-29.75Q187.78-29.75 188.08-28.95L188.08-28.95Q188.18-28.4 188.03-27.65L188.03-27.65Q188.93-27.4 189.85-27.03 190.78-26.65 191.23-25.93 191.68-25.2 190.93-25.25L190.93-25.25Q190.48-25.25 189.5-25.58 188.53-25.9 187.53-26L187.53-26Q185.98-21.5 181.78-15.25L181.78-15.25Q172.73-1.9 172.73 1.8L172.73 1.8Q172.73 3.45 174.33 3.45L174.33 3.45Q176.83 3.45 182.38-0.25L182.38-0.25Q190.93-6.2 196.88-14.6L196.88-14.6Q196.83-16 196.83-18 196.83-20 197.13-21.95L197.13-21.95Q197.28-23 198.25-23.9 199.23-24.8 199.73-24.8L199.73-24.8Q200.38-24.8 200.58-23.65L200.58-23.65 200.68-22.75Q200.68-22.3 200.68-21.85L200.68-21.85Q200.68-18 199.18-14.9L199.18-14.9Q199.18-14.7 199.18-14.45L199.18-14.45Q199.18-8.85 201.65-4.35 204.13 0.15 207.38 0.15L207.38 0.15Q210.18 0.15 212.33-2.75L212.33-2.75Q215.88-7.6 215.88-14.6L215.88-14.6Q215.88-20.95 213.08-23.95L213.08-23.95Q211.43-25.7 209.13-25.7L209.13-25.7Q207.23-25.7 205.88-24.7L205.88-24.7Q205.33-24.35 205.08-24.75 204.83-25.15 205.13-25.4L205.13-25.4Q207.78-27.35 210.18-27.35 212.58-27.35 214.13-26.25L214.13-26.25Q217.98-23.75 217.98-16.4L217.98-16.4Q217.98-13.25 217.08-10L217.08-10Q215.78-5.25 212.73-1.6 209.68 2.05 206.03 2.05L206.03 2.05Q205.98 2.05 205.93 2.05L205.93 2.05Q201.98 2.05 199.35-1.9 196.73-5.85 196.73-10.75L196.73-10.75Q196.73-11.35 196.78-12L196.78-12Q194.33-8.9 190.6-5.38 186.88-1.85 183.63 0.4L183.63 0.4Q178.03 4.55 173.18 4.55ZM232.62-14.55L232.62-14.55Q235.32-14.55 235.32-11.95L235.32-11.95Q235.32-10.6 234.57-9.75L234.57-9.75Q233.32-7.9 230.52-6.53 227.72-5.15 225.77-5L225.77-5Q225.07-4.95 225.02-5.4L225.02-5.4Q224.97-5.6 225.15-5.65 225.32-5.7 225.42-5.7L225.42-5.7Q226.57-5.8 228.37-6.8L228.37-6.8Q231.72-8.6 233.27-10.5L233.27-10.5Q233.92-11.4 233.92-12.23 233.92-13.05 233.12-13.05L233.12-13.05Q232.47-13.05 231.37-12.5L231.37-12.5Q229.02-11.4 226.42-8.68 223.82-5.95 223.02-3.35L223.02-3.35Q222.77-2.55 222.77-1.78 222.77-1 223.42-0.3 224.07 0.4 225.42 0.4L225.42 0.4Q226.92 0.4 228.87-0.4L228.87-0.4Q234.52-2.7 237.57-7.35L237.57-7.35Q237.87-7.75 238.12-7.5L238.12-7.5Q238.32-7.4 238.32-7.25 238.32-7.1 238.17-6.9L238.17-6.9Q236.67-4.4 234.37-2.45L234.37-2.45Q229.92 1.35 225.72 1.35L225.72 1.35Q222.12 1.35 220.67-0.8L220.67-0.8Q220.12-1.65 220.12-2.85 220.12-4.05 220.77-5.7L220.77-5.7Q222.02-8.55 226.12-11.55 230.22-14.55 232.62-14.55ZM251.02-13.5L251.02-13.5Q251.92-13.5 253.17-12.58 254.42-11.65 254.57-10.75L254.57-10.75Q254.62-10.4 254.62-10.1L254.62-10.1Q254.62-7.85 252.42-5.28 250.22-2.7 247.47-0.9L247.47-0.9Q243.22 2 239.02 2L239.02 2Q237.32 2 236.32 1.55L236.32 1.55Q235.52 1.15 238.32 1.15L238.32 1.15Q241.37 1.15 246.22-2.45L246.22-2.45Q250.92-5.75 251.92-10.35L251.92-10.35Q252.07-11.05 251.9-11.78 251.72-12.5 251.02-12.5L251.02-12.5Q248.77-12.5 245.12-9.35L245.12-9.35Q243.57-8.05 241.95-5.85 240.32-3.65 240.32-2.25L240.32-2.25Q240.32-2.05 240.4-1.83 240.47-1.6 240.22-1.1L240.22-1.1Q239.57 0.2 238.37-1.25L238.37-1.25Q238.07-2 238.07-2.8L238.07-2.8Q238.07-5.1 238.77-7.65L238.77-7.65Q238.57-7.45 237.9-6.43 237.22-5.4 236.32-4.4L236.32-4.4Q235.87-3.9 235.62-4.4L235.62-4.4Q235.57-4.5 235.57-4.67 235.57-4.85 235.77-5.1L235.77-5.1Q239.67-9.95 240.32-11.4L240.32-11.4Q241.22-13.9 243.07-17.93 244.92-21.95 246.47-24.35L246.47-24.35Q249.67-29.4 253.07-29.4L253.07-29.4Q253.67-29.4 254.32-29.25L254.32-29.25 255.32-28.9Q256.77-28.05 256.77-26.73 256.77-25.4 255.97-23.85L255.97-23.85Q254.67-21.2 250.37-17.18 246.07-13.15 242.02-10.35L242.02-10.35Q241.02-8.55 240.47-5.65L240.47-5.65Q242.32-8.4 245.3-10.95 248.27-13.5 251.02-13.5ZM249.42-18L249.42-18Q255.37-24 255.37-26.9L255.37-26.9Q255.37-28.1 254.47-28.1L254.47-28.1Q253.77-28.1 252.57-27.2L252.57-27.2Q247.42-23.25 242.57-12.35L242.57-12.35Q245.97-14.6 249.42-18ZM269.69-9.13Q271.92-11.1 274.32-12.5 276.72-13.9 278.12-14.25 279.52-14.6 280.87-14.6 282.22-14.6 283.42-13.7L283.42-13.7Q290.27-29.6 296.52-29.6L296.52-29.6Q298.62-29.6 299.37-28.4L299.37-28.4Q299.72-27.8 299.72-27.35L299.72-27.35Q299.72-26.1 298.64-24.18 297.57-22.25 295.32-19.95 293.07-17.65 288.87-14.28 284.67-10.9 284.22-10.5L284.22-10.5Q282.62-6.8 281.72-3.35 280.82 0.1 280.82 1.8 280.82 3.5 281.42 4.5L281.42 4.5Q281.72 5.15 282.32 5.28 282.92 5.4 283.34 5.13 283.77 4.85 283.99 4.65 284.22 4.45 284.54 4.28 284.87 4.1 285.02 4.2 285.17 4.3 284.97 4.75L284.97 4.75Q284.57 5.25 284.22 5.6L284.22 5.6Q283.42 6.15 282.34 6.15 281.27 6.15 280.92 6.1L280.92 6.1Q278.52 5.7 278.52 2.6L278.52 2.6Q278.52-0.4 279.32-2.95L279.32-2.95Q280.42-6.45 281.32-8.75L281.32-8.75Q273.32 0.55 269.97 0.55L269.97 0.55Q269.17 0.55 268.24 0.08 267.32-0.4 266.67-1.28 266.02-2.15 266.02-3.15 266.02-4.15 266.47-5.05L266.47-5.05Q267.47-7.15 269.69-9.13ZM282.32-11.2L283.02-12.9Q282.42-13.2 280.92-13.2 279.42-13.2 277.04-11.98 274.67-10.75 272.57-8.9L272.57-8.9Q270.82-7.25 269.49-5.18 268.17-3.1 268.17-2.15L268.17-2.15Q268.17-0.3 269.22-0.3 270.27-0.3 272.42-2L272.42-2Q277.97-6.55 282.32-11.2L282.32-11.2ZM297.67-25.5L297.67-25.5Q298.32-26.7 298.32-27.53 298.32-28.35 297.59-28.35 296.87-28.35 295.67-27.45L295.67-27.45Q290.17-23.25 285.72-13.4L285.72-13.4Q288.97-15.5 292.52-19 296.07-22.5 297.67-25.5ZM297.76-14.55L297.76-14.55Q300.46-14.55 300.46-11.95L300.46-11.95Q300.46-10.6 299.71-9.75L299.71-9.75Q298.46-7.9 295.66-6.53 292.86-5.15 290.91-5L290.91-5Q290.21-4.95 290.16-5.4L290.16-5.4Q290.11-5.6 290.29-5.65 290.46-5.7 290.56-5.7L290.56-5.7Q291.71-5.8 293.51-6.8L293.51-6.8Q296.86-8.6 298.41-10.5L298.41-10.5Q299.06-11.4 299.06-12.23 299.06-13.05 298.26-13.05L298.26-13.05Q297.61-13.05 296.51-12.5L296.51-12.5Q294.16-11.4 291.56-8.68 288.96-5.95 288.16-3.35L288.16-3.35Q287.91-2.55 287.91-1.78 287.91-1 288.56-0.3 289.21 0.4 290.56 0.4L290.56 0.4Q292.06 0.4 294.01-0.4L294.01-0.4Q299.66-2.7 302.71-7.35L302.71-7.35Q303.01-7.75 303.26-7.5L303.26-7.5Q303.46-7.4 303.46-7.25 303.46-7.1 303.31-6.9L303.31-6.9Q301.81-4.4 299.51-2.45L299.51-2.45Q295.06 1.35 290.86 1.35L290.86 1.35Q287.26 1.35 285.81-0.8L285.81-0.8Q285.26-1.65 285.26-2.85 285.26-4.05 285.91-5.7L285.91-5.7Q287.16-8.55 291.26-11.55 295.36-14.55 297.76-14.55ZM304.76-11.15L304.76-11.15Q304.76-13.55 303.36-13.55L303.36-13.55Q303.06-13.55 302.74-13.48 302.41-13.4 302.41-13.6 302.41-13.8 302.71-14.1L302.71-14.1Q303.01-14.35 304.76-14.5L304.76-14.5Q306.86-14.5 307.39-13.9 307.91-13.3 307.91-12.7 307.91-12.1 306.99-9.73 306.06-7.35 306.01-7.25L306.01-7.25Q304.51-2.75 304.66-1.6L304.66-1.6Q309.16-7.65 310.56-9.15L310.56-9.15Q313.51-12.4 314.76-13.6L314.76-13.6Q317.66-16.3 319.86-17.25L319.86-17.25Q320.51-17.5 321.01-17.5L321.01-17.5Q322.66-17.5 323.26-16.5L323.26-16.5Q323.46-16.25 323.46-16.03 323.46-15.8 323.31-15.5 323.16-15.2 322.76-15.53 322.36-15.85 320.96-15.85L320.96-15.85Q318.66-15.85 313.26-10.45L313.26-10.45Q310.01-7.1 307.29-3.45 304.56 0.2 304.36 1.75L304.36 1.75Q304.36 2.15 303.61 2.15 302.86 2.15 302.49 1.53 302.11 0.9 302.11 0.48 302.11 0.05 302.16-0.28 302.21-0.6 303.16-3.95 304.11-7.3 304.36-8.4L304.36-8.4Q303.76-7.4 302.71-5.95L302.71-5.95Q302.36-5.55 302.14-5.73 301.91-5.9 301.91-6.05 301.91-6.2 302.01-6.4L302.01-6.4Q304.11-9.25 304.76-11.15ZM329.46-14.55L329.46-14.55Q332.16-14.55 332.16-11.95L332.16-11.95Q332.16-10.6 331.41-9.75L331.41-9.75Q330.16-7.9 327.36-6.53 324.56-5.15 322.61-5L322.61-5Q321.91-4.95 321.86-5.4L321.86-5.4Q321.81-5.6 321.98-5.65 322.16-5.7 322.26-5.7L322.26-5.7Q323.41-5.8 325.21-6.8L325.21-6.8Q328.56-8.6 330.11-10.5L330.11-10.5Q330.76-11.4 330.76-12.23 330.76-13.05 329.96-13.05L329.96-13.05Q329.31-13.05 328.21-12.5L328.21-12.5Q325.86-11.4 323.26-8.68 320.66-5.95 319.86-3.35L319.86-3.35Q319.61-2.55 319.61-1.78 319.61-1 320.26-0.3 320.91 0.4 322.26 0.4L322.26 0.4Q323.76 0.4 325.71-0.4L325.71-0.4Q331.36-2.7 334.41-7.35L334.41-7.35Q334.71-7.75 334.96-7.5L334.96-7.5Q335.16-7.4 335.16-7.25 335.16-7.1 335.01-6.9L335.01-6.9Q333.51-4.4 331.21-2.45L331.21-2.45Q326.76 1.35 322.56 1.35L322.56 1.35Q318.96 1.35 317.51-0.8L317.51-0.8Q316.96-1.65 316.96-2.85 316.96-4.05 317.61-5.7L317.61-5.7Q318.86-8.55 322.96-11.55 327.06-14.55 329.46-14.55ZM351.21-25.5L351.21-25.5Q351.81-26.6 351.81-27.2L351.81-27.2Q351.81-28.25 350.96-28.25L350.96-28.25Q350.25-28.25 349.21-27.45L349.21-27.45Q345.21-24.35 341.46-17.65L341.46-17.65Q338.46-12.25 337.06-8.4L337.06-8.4Q340.5-10.75 344.78-16.05 349.06-21.35 351.21-25.5ZM336.31-6.4L336.31-6.4Q335.71-4.7 335.66-4.13 335.61-3.55 335.61-2.58 335.61-1.6 336.11-0.8L336.11-0.8Q336.96 0.55 338.96-0.6L338.96-0.6Q340.46-1.4 342.75-3.53 345.06-5.65 346.31-7.4L346.31-7.4Q346.41-7.55 346.61-7.55L346.61-7.55Q347.06-7.55 346.86-6.9L346.86-6.9Q346.11-5.55 344.08-3.45 342.06-1.35 340.41-0.13 338.75 1.1 337.11 1.1L337.11 1.1Q333.31 1.1 333.31-2.6L333.31-2.6Q333.31-2.75 333.31-2.9L333.31-2.9Q333.5-6.4 336.86-13.48 340.21-20.55 342.91-24.15L342.91-24.15 344.46-26.1Q345-26.75 346.06-27.7L346.06-27.7Q348.06-29.6 350.18-29.6 352.31-29.6 353.06-28.3L353.06-28.3Q353.31-27.85 353.31-27 353.31-26.15 352.56-24.6L352.56-24.6Q347.41-15.65 336.31-6.4ZM355.95-5.5L355.95-5.5Q356.85-7.35 356.85-8.35 356.85-9.35 356.63-9.93 356.4-10.5 356.83-10.9 357.25-11.3 357.9-11.2L357.9-11.2Q358.9-10.95 358.9-8.95 358.9-6.95 356.55-3.7L356.55-3.7Q356.6-2.35 357.95-2.35 359.3-2.35 362.05-5.25L362.05-5.25Q363.35-6.75 363.68-7.2 364-7.65 364.25-7.53 364.5-7.4 364.5-7.3L364.5-7.3Q364.5-6.8 362.7-4.7L362.7-4.7Q359.85-1.2 357.65-1.2L357.65-1.2Q356.2-1.2 355.6-2.45L355.6-2.45Q354.6-1.4 353.65-0.5L353.65-0.5Q351.7 1.15 349.3 1.15L349.3 1.15Q347.95 1.15 347.05 0.5L347.05 0.5Q345.3-0.55 345.3-3.25L345.3-3.25Q345.3-6.2 347.3-9.25L347.3-9.25Q348.45-11.05 350-12.4L350-12.4Q352.45-14.55 354.65-14.55L354.65-14.55Q355.2-14.55 355.7-14.4L355.7-14.4Q357.2-13.9 357.2-12.5L357.2-12.5Q357.2-11.35 356.6-11.35L356.6-11.35Q356.35-11.45 356.35-12.1L356.35-12.1Q356.35-13 355.35-13L355.35-13Q353.6-13 350.85-9.8 348.1-6.6 347.55-3.35L347.55-3.35Q347.45-2.8 347.45-2.13 347.45-1.45 347.9-0.58 348.35 0.3 349.58 0.3 350.8 0.3 352.25-0.8 353.7-1.9 354.85-3.6L354.85-3.6 354.7-3.9Q354.5-4.7 354.9-5.2 355.3-5.7 355.95-5.5ZM378.8-10.4L378.8-10.4Q378.8-8.2 377-5.93 375.2-3.65 372.75-1.95L372.75-1.95Q370.5-0.5 368.18 0.3 365.85 1.1 364.68 1.1 363.5 1.1 362.75 0.85L362.75 0.85Q361.65 3.4 359.7 9.4L359.7 9.4Q359.5 10.05 359.48 11.03 359.45 12 358.88 13.68 358.3 15.35 357.75 16.35L357.75 16.35Q357.5 16.95 356.3 17.32 355.1 17.7 354.6 17.7 354.1 17.7 354.1 17.2L354.1 17.2Q354.1 17 354.25 16.65L354.25 16.65Q356.55 11.95 360.05 2.83 363.55-6.3 363.9-7.3 364.25-8.3 364.9-10.2L364.9-10.2Q366-13.4 366.1-15L366.1-15Q366.1-15.6 367.7-15.6 369.3-15.6 369.3-14.45L369.3-14.45Q369.3-13.6 368.33-12.08 367.35-10.55 365.45-6L365.45-6Q368.35-10.4 370.15-11.75L370.15-11.75Q372.55-13.7 374.8-13.7L374.8-13.7Q375.7-13.7 376.6-13.4L376.6-13.4Q378.55-12.7 378.75-11.15L378.75-11.15Q378.8-10.75 378.8-10.4ZM376.35-11.1L376.35-11.1Q376.35-12.85 375-12.85L375-12.85Q374.2-12.85 372.4-11.9 370.6-10.95 368.8-9.05 367-7.15 366.03-5.48 365.05-3.8 364.2-2.02 363.35-0.25 363.2 0.05L363.2 0.05Q366.25 0.05 369.9-2.6 373.55-5.25 375.35-8.35L375.35-8.35Q376.35-9.9 376.35-11.1ZM393.2-14.55L393.2-14.55Q395.9-14.55 395.9-11.95L395.9-11.95Q395.9-10.6 395.15-9.75L395.15-9.75Q393.9-7.9 391.1-6.53 388.3-5.15 386.35-5L386.35-5Q385.65-4.95 385.6-5.4L385.6-5.4Q385.55-5.6 385.72-5.65 385.9-5.7 386-5.7L386-5.7Q387.15-5.8 388.95-6.8L388.95-6.8Q392.3-8.6 393.85-10.5L393.85-10.5Q394.5-11.4 394.5-12.23 394.5-13.05 393.7-13.05L393.7-13.05Q393.05-13.05 391.95-12.5L391.95-12.5Q389.6-11.4 387-8.68 384.4-5.95 383.6-3.35L383.6-3.35Q383.35-2.55 383.35-1.78 383.35-1 384-0.3 384.65 0.4 386 0.4L386 0.4Q387.5 0.4 389.45-0.4L389.45-0.4Q395.1-2.7 398.15-7.35L398.15-7.35Q398.45-7.75 398.7-7.5L398.7-7.5Q398.9-7.4 398.9-7.25 398.9-7.1 398.75-6.9L398.75-6.9Q397.25-4.4 394.95-2.45L394.95-2.45Q390.5 1.35 386.3 1.35L386.3 1.35Q382.7 1.35 381.25-0.8L381.25-0.8Q380.7-1.65 380.7-2.85 380.7-4.05 381.35-5.7L381.35-5.7Q382.6-8.55 386.7-11.55 390.8-14.55 393.2-14.55ZM404.2 1.25L404.2 1.25Q401.65 1.25 401.65-1.83 401.65-4.9 406.05-9.4L406.05-9.4Q406.4-9.75 406.55-9.95L406.55-9.95 406.9-10.45Q407.6-11.4 407.55-11.65L407.55-11.65 407.4-12.1Q407.2-12.7 405.75-12.98 404.3-13.25 403.4-13.25L403.4-13.25Q398.9-6.9 398.2-6 397.5-5.1 397.25-5.25 397-5.4 397-5.6 397-5.8 397.3-6.2L397.3-6.2Q400-9.5 401.95-13.25L401.95-13.25Q401.35-13.35 401.05-13.68 400.75-14 401-14.78 401.25-15.55 402.52-16.85 403.8-18.15 404.75-18.6 405.7-19.05 405.95-19.15 406.2-19.25 406.5-19.25L406.5-19.25Q407.1-19.25 406.1-17.45L406.1-17.45 404.15-14.35Q406.4-14.2 408-14.2L408-14.2 409.75-14.25Q410.6-14.25 411-14.03 411.4-13.8 411.2-13.25L411.2-13.25Q410.85-12.3 409.45-10.7L409.45-10.7Q406.45-7.2 404.95-3.25L404.95-3.25Q404.6-2.3 404.6-1.6L404.6-1.6Q404.6-0.15 405.65-0.15L405.65-0.15Q406-0.15 406.97-0.7 407.95-1.25 410.25-3.33 412.55-5.4 413.95-7.4L413.95-7.4Q414.15-7.65 414.42-7.53 414.7-7.4 414.7-7.28 414.7-7.15 414.6-7L414.6-7Q413.85-5.65 411.9-3.55 409.95-1.45 408.1-0.15L408.1-0.15Q406.3 1.25 404.2 1.25Z" opacity="1" transform="matrix(1,0,0,1,0,0)" fill="white" class="slogan-text-1" id="SvgjsPath1860"></path></svg></g></svg></g></svg></g></svg></g><g></g></svg></g></svg></g></svg></g></svg></g><defs><mask></mask></defs><mask><g id="SvgjsG1859"><svg viewBox="0 0 194.4321556346329 247.2" height="247.2" width="194.4321556346329"><g><svg></svg></g><g><svg viewBox="0 0 194.4321556346329 247.2" height="247.2" width="194.4321556346329"><g transform="matrix(1,0,0,1,0,47.215199999999996)"><svg viewBox="0 0 194.4321556346329 152.7696" height="152.7696" width="194.4321556346329"><g><svg viewBox="0 0 194.4321556346329 152.7696" height="152.7696" width="194.4321556346329"><g><svg viewBox="0 0 244.43135999999998 192.05506914620955" height="152.7696" width="194.4321556346329"><g><svg viewBox="0 0 244.43135999999998 192.05506914620955" height="192.05506914620955" width="244.43135999999998"><g id="SvgjsG1858"><svg viewBox="0 0 244.43135999999998 192.05506914620955" height="192.05506914620955" width="244.43135999999998" id="SvgjsSvg1857"><g><svg viewBox="0 0 244.43135999999998 132.72664067453627" height="132.72664067453627" width="244.43135999999998"><g transform="matrix(1,0,0,1,0,0)"><svg width="244.43135999999998" viewBox="1.35 -31.95 59.3 32.2" height="132.72664067453627" data-palette-color="url(#658d7b1d-98c7-4121-be73-ef648a79d684)"><path d="M6.4-30.25Q8.25-24.75 10.6-18.18 12.95-11.6 14.9-6.8L14.9-6.8Q16.35-11.45 18.9-17.98 21.45-24.5 23.65-29.75L23.65-29.75Q24.3-31.3 25.85-31.3L25.85-31.3Q27.3-31.3 28.05-30.73 28.8-30.15 28.8-28.75L28.8-28.75Q28.8-28.2 28.65-27.8 28.5-27.4 28.2-26.75L28.2-26.75Q26.65-23.7 25.1-19.73 23.55-15.75 21.3-9.65L21.3-9.65Q21.4-9.9 19.9-5.9L19.9-5.9 18.25-1.6Q17.95-0.8 17.28-0.38 16.6 0.05 15.75 0.05L15.75 0.05Q14.9 0.05 13.88-0.38 12.85-0.8 12.4-1.25L12.4-1.25Q10.7-4.5 8.08-10.65 5.45-16.8 3.55-22L3.55-22 2.8-24.05Q2.05-26.15 1.7-27.28 1.35-28.4 1.35-29.1L1.35-29.1Q1.35-30.1 2.48-30.7 3.6-31.3 4.65-31.3L4.65-31.3Q5.2-31.3 5.7-31.05 6.2-30.8 6.4-30.25L6.4-30.25ZM55.85-0.75Q55.2-1.6 54.75-2.63 54.3-3.65 53.8-5.1L53.8-5.1Q53.7-5.35 53.22-6.6 52.75-7.85 52.15-8.75L52.15-8.75Q49-8.3 47-8.3L47-8.3Q45.9-8.3 44.57-8.38 43.25-8.45 42.6-8.45L42.6-8.45Q40.1-8.65 38.6-8.65L38.6-8.65Q38-7.85 37.57-6.95 37.15-6.05 36.5-4.25L36.5-4.25Q35.6-1.65 34.95-0.55L34.95-0.55Q34.5 0.2 33.2 0.2L33.2 0.2Q32.1 0.2 31.17-0.28 30.25-0.75 30.25-1.6L30.25-1.6Q30.65-3.5 31.52-5.63 32.4-7.75 34.05-11.3L34.05-11.3 36.05-16.2Q37.7-20.4 39.07-23.4 40.45-26.4 42.7-30.5L42.7-30.5Q43-31.1 43.7-31.53 44.4-31.95 45.25-31.95L45.25-31.95Q46.2-31.95 46.62-31.83 47.05-31.7 47.3-31.43 47.55-31.15 48.05-30.3L48.05-30.3Q49.75-27.65 50.97-24.85 52.2-22.05 54.1-17.1L54.1-17.1 55.15-14.45Q56.55-10.85 57.57-8.43 58.6-6 59.85-4L59.85-4Q60.65-2.7 60.65-2.2L60.65-2.2Q60.65-1 59.92-0.38 59.2 0.25 58.05 0.25L58.05 0.25Q56.6 0.25 55.85-0.75L55.85-0.75ZM50.7-12.85Q49.9-14.55 48.4-18.75L48.4-18.75Q46.85-23.25 45.3-25.9L45.3-25.9Q44.35-23.5 42.5-19.7L42.5-19.7Q41.25-17.35 39.65-12.9L39.65-12.9Q42.85-12.5 46.55-12.5L46.55-12.5Q49.2-12.5 50.7-12.85L50.7-12.85Z" opacity="1" transform="matrix(1,0,0,1,0,0)" fill="black" class="wordmark-text-0" id="SvgjsPath1856"></path></svg></g></svg></g><g transform="matrix(1,0,0,1,0,164.0602150984181)"><svg viewBox="0 0 244.43135999999998 27.994854047791453" height="27.994854047791453" width="244.43135999999998"><g transform="matrix(1,0,0,1,0,0)"><svg width="244.43135999999998" viewBox="0.45 -29.75 414.25 47.45" height="27.994854047791453" data-palette-color="url(#d66c829f-de8a-4785-8b25-4370a72ef83a)"><path d="M13.55-2.9L13.55-2.9Q13.7-2.9 13.7-2.6 13.7-2.3 13-1.6L13-1.6 12.5-0.85Q11.15 1.2 10.53 1.55 9.9 1.9 9.53 1.9 9.15 1.9 8.38 1.73 7.6 1.55 7.58 1.35 7.55 1.15 7.55 0.95L7.55 0.95Q7.55-1.5 12-10.1L12-10.1Q10.8-9.95 10.18-9.95 9.55-9.95 9.13-10.33 8.7-10.7 8.7-11.3 8.7-11.9 9.75-12.4 10.8-12.9 11.38-12.9 11.95-12.9 12.35-12.43 12.75-11.95 12.85-11.95L12.85-11.95 13-11.95Q14.05-13.85 14.9-15.45 15.75-17.05 15.75-17.53 15.75-18 15.6-18.25L15.6-18.25Q15.9-19.7 18.07-21.95 20.25-24.2 22.05-24.2L22.05-24.2Q22.85-24.2 24-23.58 25.15-22.95 25-21.95L25-21.95Q24.65-22.2 24.35-22.2L24.35-22.2Q20.95-22.2 15-12L15-12Q16.65-12.15 18.45-12.45L18.45-12.45Q24.45-13.2 25.25-13.2 26.05-13.2 26.28-13.18 26.5-13.15 26.68-13.05 26.85-12.95 26.9-12.85L26.9-12.85Q26.95-12.55 25.75-12.15L25.75-12.15Q22.85-11.2 14-10.25L14-10.25Q9.8-2.65 9.8-0.9L9.8-0.9Q9.8-0.05 10.53-0.28 11.25-0.5 11.8-1.2L11.8-1.2Q13.1-2.9 13.55-2.9ZM33.1-26.7L33.1-26.7Q34.55-28.3 35.85-28.3L35.85-28.3Q36.45-28.3 36.8-28 37.15-27.7 37.15-27.4 37.15-27.1 36.85-26.8 36.55-26.5 35.7-25.88 34.85-25.25 34.35-24.75L34.35-24.75Q31.95-22.4 31.95-20.7L31.95-20.7Q31.95-19.95 32.27-19.45 32.6-18.95 32.2-18.82 31.8-18.7 31.45-19.15L31.45-19.15Q31-19.45 31-21.15L31-21.15Q31-23.4 31.8-24.9L31.8-24.9Q31.9-25.05 32.13-25.43 32.35-25.8 32.5-25.95L32.5-25.95Q32.15-25.95 30.63-25.95 29.1-25.95 24.58-26.35 20.05-26.75 17.75-26.75 15.45-26.75 14.2-26.45L14.2-26.45Q9.45-25.8 6.03-23.83 2.6-21.85 1.95-18.85L1.95-18.85Q1.85-18.55 1.85-18.13 1.85-17.7 2.13-17.1 2.4-16.5 2.8-16.15 3.2-15.8 4.03-15.3 4.85-14.8 5.13-14.58 5.4-14.35 5.23-14.2 5.05-14.05 4.88-14.05 4.7-14.05 4.5-14.1L4.5-14.1Q2.8-14.6 1.63-15.98 0.45-17.35 0.45-18.28 0.45-19.2 0.7-19.85L0.7-19.85Q0.7-20.4 0.75-20.65L0.75-20.65Q1.5-24.2 5.3-26.15L5.3-26.15Q9.85-28.5 16.4-28.5L16.4-28.5Q20-28.5 25.25-27.65 30.5-26.8 33.1-26.7ZM35.1 1.25L35.1 1.25Q32.55 1.25 32.55-1.83 32.55-4.9 36.95-9.4L36.95-9.4Q37.3-9.75 37.45-9.95L37.45-9.95 37.8-10.45Q38.5-11.4 38.45-11.65L38.45-11.65 38.3-12.1Q38.1-12.7 36.65-12.98 35.2-13.25 34.3-13.25L34.3-13.25Q29.8-6.9 29.1-6 28.4-5.1 28.15-5.25 27.9-5.4 27.9-5.6 27.9-5.8 28.2-6.2L28.2-6.2Q30.9-9.5 32.85-13.25L32.85-13.25Q32.25-13.35 31.95-13.68 31.65-14 31.9-14.78 32.15-15.55 33.42-16.85 34.7-18.15 35.65-18.6 36.6-19.05 36.85-19.15 37.1-19.25 37.4-19.25L37.4-19.25Q38-19.25 37-17.45L37-17.45 35.05-14.35Q37.3-14.2 38.9-14.2L38.9-14.2 40.65-14.25Q41.5-14.25 41.9-14.03 42.3-13.8 42.1-13.25L42.1-13.25Q41.75-12.3 40.35-10.7L40.35-10.7Q37.35-7.2 35.85-3.25L35.85-3.25Q35.5-2.3 35.5-1.6L35.5-1.6Q35.5-0.15 36.55-0.15L36.55-0.15Q36.9-0.15 37.87-0.7 38.85-1.25 41.15-3.33 43.45-5.4 44.85-7.4L44.85-7.4Q45.05-7.65 45.32-7.53 45.6-7.4 45.6-7.28 45.6-7.15 45.5-7L45.5-7Q44.75-5.65 42.8-3.55 40.85-1.45 39-0.15L39-0.15Q37.2 1.25 35.1 1.25ZM54.6-5.5L54.6-5.5Q55.5-7.35 55.5-8.35 55.5-9.35 55.27-9.93 55.05-10.5 55.47-10.9 55.9-11.3 56.55-11.2L56.55-11.2Q57.55-10.95 57.55-8.95 57.55-6.95 55.2-3.7L55.2-3.7Q55.25-2.35 56.6-2.35 57.95-2.35 60.7-5.25L60.7-5.25Q62-6.75 62.32-7.2 62.65-7.65 62.9-7.53 63.15-7.4 63.15-7.3L63.15-7.3Q63.15-6.8 61.35-4.7L61.35-4.7Q58.5-1.2 56.3-1.2L56.3-1.2Q54.85-1.2 54.25-2.45L54.25-2.45Q53.25-1.4 52.3-0.5L52.3-0.5Q50.35 1.15 47.95 1.15L47.95 1.15Q46.6 1.15 45.7 0.5L45.7 0.5Q43.95-0.55 43.95-3.25L43.95-3.25Q43.95-6.2 45.95-9.25L45.95-9.25Q47.1-11.05 48.65-12.4L48.65-12.4Q51.1-14.55 53.3-14.55L53.3-14.55Q53.85-14.55 54.35-14.4L54.35-14.4Q55.85-13.9 55.85-12.5L55.85-12.5Q55.85-11.35 55.25-11.35L55.25-11.35Q55-11.45 55-12.1L55-12.1Q55-13 54-13L54-13Q52.25-13 49.5-9.8 46.75-6.6 46.2-3.35L46.2-3.35Q46.1-2.8 46.1-2.13 46.1-1.45 46.55-0.58 47 0.3 48.22 0.3 49.45 0.3 50.9-0.8 52.35-1.9 53.5-3.6L53.5-3.6 53.35-3.9Q53.15-4.7 53.55-5.2 53.95-5.7 54.6-5.5ZM75.69-14.2L75.69-14.2Q76.84-14.2 76.84-12.98 76.84-11.75 75.69-9.6 74.54-7.45 73.99-6.1L73.99-6.1Q73.04-3.8 73.04-2.43 73.04-1.05 73.44-0.6L73.44-0.6Q74.19 0.2 75.49-0.53 76.79-1.25 79.12-3.33 81.44-5.4 82.84-7.4L82.84-7.4Q83.04-7.65 83.32-7.53 83.59-7.4 83.59-7.28 83.59-7.15 83.49-7L83.49-7Q82.74-5.65 80.79-3.55 78.84-1.45 77.04-0.18 75.24 1.1 73.49 1.1L73.49 1.1Q71.79 1.05 71.09 0.33 70.39-0.4 70.39-1.5 70.39-2.6 70.59-3.63 70.79-4.65 71.34-6L71.34-6Q72.24-8.15 72.92-9.35 73.59-10.55 73.59-10.93 73.59-11.3 73.19-11.3L73.19-11.3Q72.39-11.3 70.14-9.35L70.14-9.35Q68.59-7.9 65.57-3.88 62.54 0.15 62.14 0.4L62.14 0.4Q60.34 1.3 59.89 1.3 59.44 1.3 59.44 1.15 59.44 1 59.54 0.73 59.64 0.45 60.52-2 61.39-4.45 62.42-7.38 63.44-10.3 63.67-10.9 63.89-11.5 63.97-11.93 64.04-12.35 64.14-12.65 64.24-12.95 64.52-13.33 64.79-13.7 65.24-13.73 65.69-13.75 66.39-13.63 67.09-13.5 67.09-13L67.09-13Q67.09-12.65 66.54-11.48 65.99-10.3 63.39-3.4L63.39-3.4Q65.19-5.6 67.94-8.47 70.69-11.35 72.59-12.85L72.59-12.85Q74.49-14.2 75.69-14.2ZM89.59-13.95L90.24-14Q94.09-14.35 94.92-14.35 95.74-14.35 95.74-14.1L95.74-14.1Q95.74-13.8 94.57-13.48 93.39-13.15 88.84-12.65L88.84-12.65Q88.59-12.2 88.24-11.6L88.24-11.6Q87.49-10.4 87.44-10.15L87.44-10.15Q84.59-4.45 84.44-2.9L84.44-2.9Q84.39-2.45 84.39-1.75 84.39-1.05 84.79-0.6L84.79-0.6Q85.49 0.2 86.79-0.5 88.09-1.2 90.42-3.3 92.74-5.4 94.19-7.4L94.19-7.4Q94.39-7.65 94.69-7.5L94.69-7.5Q95.44-7.15 92.09-3.55L92.09-3.55Q88.89-0.1 86.74 0.7L86.74 0.7Q85.49 1.15 84.64 1.15L84.64 1.15Q82.64 1.15 81.99-0.75L81.99-0.75Q81.89-1.1 81.89-1.6L81.89-1.6Q81.89-3.35 83.49-6.9L83.49-6.9Q83.24-6.35 81.54-4.4L81.54-4.4Q81.09-3.9 80.84-4.4L80.84-4.4Q80.79-4.5 80.79-4.67 80.79-4.85 80.99-5.1L80.99-5.1Q83.44-8.15 84.84-10.25L84.84-10.25Q84.84-10.3 85.94-12.35L85.94-12.35Q85.44-12.25 84.92-12.25 84.39-12.25 84.14-12.58 83.89-12.9 84.09-13.35L84.09-13.35Q84.44-14.15 86.74-14.25L86.74-14.25Q86.79-14.35 86.94-14.35L86.94-14.35 89.44-19Q89.64-19.4 89.89-19.83 90.14-20.25 90.27-20.48 90.39-20.7 90.54-20.95 90.69-21.2 90.79-21.3 90.89-21.4 90.99-21.5L90.99-21.5Q91.19-21.8 92.17-21.8 93.14-21.8 93.49-21.25L93.49-21.25Q93.64-21.05 93.64-20.58 93.64-20.1 93.29-19.53 92.94-18.95 92.54-18.7 92.14-18.45 91.99-18.15L91.99-18.15 89.59-13.95ZM116.04-14.55L116.04-14.55Q118.74-14.55 118.74-11.95L118.74-11.95Q118.74-10.6 117.99-9.75L117.99-9.75Q116.74-7.9 113.94-6.53 111.14-5.15 109.19-5L109.19-5Q108.49-4.95 108.44-5.4L108.44-5.4Q108.39-5.6 108.56-5.65 108.74-5.7 108.84-5.7L108.84-5.7Q109.99-5.8 111.79-6.8L111.79-6.8Q115.14-8.6 116.69-10.5L116.69-10.5Q117.34-11.4 117.34-12.23 117.34-13.05 116.54-13.05L116.54-13.05Q115.89-13.05 114.79-12.5L114.79-12.5Q112.44-11.4 109.84-8.68 107.24-5.95 106.44-3.35L106.44-3.35Q106.19-2.55 106.19-1.78 106.19-1 106.84-0.3 107.49 0.4 108.84 0.4L108.84 0.4Q110.34 0.4 112.29-0.4L112.29-0.4Q117.94-2.7 120.99-7.35L120.99-7.35Q121.29-7.75 121.54-7.5L121.54-7.5Q121.74-7.4 121.74-7.25 121.74-7.1 121.59-6.9L121.59-6.9Q120.09-4.4 117.79-2.45L117.79-2.45Q113.34 1.35 109.14 1.35L109.14 1.35Q105.54 1.35 104.09-0.8L104.09-0.8Q103.54-1.65 103.54-2.85 103.54-4.05 104.19-5.7L104.19-5.7Q105.44-8.55 109.54-11.55 113.64-14.55 116.04-14.55ZM134.33-14.2L134.33-14.2Q135.48-14.2 135.48-12.98 135.48-11.75 134.33-9.6 133.18-7.45 132.63-6.1L132.63-6.1Q131.68-3.8 131.68-2.43 131.68-1.05 132.08-0.6L132.08-0.6Q132.83 0.2 134.13-0.53 135.43-1.25 137.76-3.33 140.08-5.4 141.48-7.4L141.48-7.4Q141.68-7.65 141.96-7.53 142.23-7.4 142.23-7.28 142.23-7.15 142.13-7L142.13-7Q141.38-5.65 139.43-3.55 137.48-1.45 135.68-0.18 133.88 1.1 132.13 1.1L132.13 1.1Q130.43 1.05 129.73 0.33 129.03-0.4 129.03-1.5 129.03-2.6 129.23-3.63 129.43-4.65 129.98-6L129.98-6Q130.88-8.15 131.56-9.35 132.23-10.55 132.23-10.93 132.23-11.3 131.83-11.3L131.83-11.3Q131.03-11.3 128.78-9.35L128.78-9.35Q127.23-7.9 124.21-3.88 121.18 0.15 120.78 0.4L120.78 0.4Q118.98 1.3 118.53 1.3 118.08 1.3 118.08 1.15 118.08 1 118.18 0.73 118.28 0.45 119.16-2 120.03-4.45 121.06-7.38 122.08-10.3 122.31-10.9 122.53-11.5 122.61-11.93 122.68-12.35 122.78-12.65 122.88-12.95 123.16-13.33 123.43-13.7 123.88-13.73 124.33-13.75 125.03-13.63 125.73-13.5 125.73-13L125.73-13Q125.73-12.65 125.18-11.48 124.63-10.3 122.03-3.4L122.03-3.4Q123.83-5.6 126.58-8.47 129.33-11.35 131.23-12.85L131.23-12.85Q133.13-14.2 134.33-14.2ZM143.11-9.13Q145.33-11.1 147.73-12.5 150.13-13.9 151.53-14.25 152.93-14.6 154.28-14.6 155.63-14.6 156.83-13.7L156.83-13.7Q163.68-29.6 169.93-29.6L169.93-29.6Q172.03-29.6 172.78-28.4L172.78-28.4Q173.13-27.8 173.13-27.35L173.13-27.35Q173.13-26.1 172.06-24.18 170.98-22.25 168.73-19.95 166.48-17.65 162.28-14.28 158.08-10.9 157.63-10.5L157.63-10.5Q156.03-6.8 155.13-3.35 154.23 0.1 154.23 1.8 154.23 3.5 154.83 4.5L154.83 4.5Q155.13 5.15 155.73 5.28 156.33 5.4 156.76 5.13 157.18 4.85 157.41 4.65 157.63 4.45 157.96 4.28 158.28 4.1 158.43 4.2 158.58 4.3 158.38 4.75L158.38 4.75Q157.98 5.25 157.63 5.6L157.63 5.6Q156.83 6.15 155.76 6.15 154.68 6.15 154.33 6.1L154.33 6.1Q151.93 5.7 151.93 2.6L151.93 2.6Q151.93-0.4 152.73-2.95L152.73-2.95Q153.83-6.45 154.73-8.75L154.73-8.75Q146.73 0.55 143.38 0.55L143.38 0.55Q142.58 0.55 141.66 0.08 140.73-0.4 140.08-1.28 139.43-2.15 139.43-3.15 139.43-4.15 139.88-5.05L139.88-5.05Q140.88-7.15 143.11-9.13ZM155.73-11.2L156.43-12.9Q155.83-13.2 154.33-13.2 152.83-13.2 150.46-11.98 148.08-10.75 145.98-8.9L145.98-8.9Q144.23-7.25 142.91-5.18 141.58-3.1 141.58-2.15L141.58-2.15Q141.58-0.3 142.63-0.3 143.68-0.3 145.83-2L145.83-2Q151.38-6.55 155.73-11.2L155.73-11.2ZM171.08-25.5L171.08-25.5Q171.73-26.7 171.73-27.53 171.73-28.35 171.01-28.35 170.28-28.35 169.08-27.45L169.08-27.45Q163.58-23.25 159.13-13.4L159.13-13.4Q162.38-15.5 165.93-19 169.48-22.5 171.08-25.5ZM173.18 4.55L173.18 4.55Q169.23 4.55 169.23 1.75L169.23 1.75Q169.23-0.05 170.65-2.48 172.08-4.9 173.43-6.98 174.78-9.05 176.68-11.88 178.58-14.7 179.38-15.9L179.38-15.9Q184.73-23.55 186.03-26.15L186.03-26.15Q184.88-26.25 183.18-26.25L183.18-26.25Q177.23-26.25 173.28-23.9L173.28-23.9Q170.83-22.45 170.83-20.3L170.83-20.3Q170.83-19.6 171.23-19 171.63-18.4 172.03-18.15L172.03-18.15Q172.83-17.65 173.83-17.15L173.83-17.15Q174.43-16.7 174.03-16.6L174.03-16.6Q173.88-16.6 173.68-16.65L173.68-16.65Q172.53-16.9 171.18-18.1 169.83-19.3 169.78-20.85L169.78-20.85Q169.58-21.35 169.58-21.7L169.58-21.7Q169.58-23.85 171.25-25.43 172.93-27 175.58-27.6L175.58-27.6Q179.18-28.4 182-28.4 184.83-28.4 186.78-27.95L186.78-27.95Q186.93-28.7 186.73-29.15 186.53-29.6 187.08-29.7L187.08-29.7Q187.18-29.75 187.23-29.75L187.23-29.75Q187.78-29.75 188.08-28.95L188.08-28.95Q188.18-28.4 188.03-27.65L188.03-27.65Q188.93-27.4 189.85-27.03 190.78-26.65 191.23-25.93 191.68-25.2 190.93-25.25L190.93-25.25Q190.48-25.25 189.5-25.58 188.53-25.9 187.53-26L187.53-26Q185.98-21.5 181.78-15.25L181.78-15.25Q172.73-1.9 172.73 1.8L172.73 1.8Q172.73 3.45 174.33 3.45L174.33 3.45Q176.83 3.45 182.38-0.25L182.38-0.25Q190.93-6.2 196.88-14.6L196.88-14.6Q196.83-16 196.83-18 196.83-20 197.13-21.95L197.13-21.95Q197.28-23 198.25-23.9 199.23-24.8 199.73-24.8L199.73-24.8Q200.38-24.8 200.58-23.65L200.58-23.65 200.68-22.75Q200.68-22.3 200.68-21.85L200.68-21.85Q200.68-18 199.18-14.9L199.18-14.9Q199.18-14.7 199.18-14.45L199.18-14.45Q199.18-8.85 201.65-4.35 204.13 0.15 207.38 0.15L207.38 0.15Q210.18 0.15 212.33-2.75L212.33-2.75Q215.88-7.6 215.88-14.6L215.88-14.6Q215.88-20.95 213.08-23.95L213.08-23.95Q211.43-25.7 209.13-25.7L209.13-25.7Q207.23-25.7 205.88-24.7L205.88-24.7Q205.33-24.35 205.08-24.75 204.83-25.15 205.13-25.4L205.13-25.4Q207.78-27.35 210.18-27.35 212.58-27.35 214.13-26.25L214.13-26.25Q217.98-23.75 217.98-16.4L217.98-16.4Q217.98-13.25 217.08-10L217.08-10Q215.78-5.25 212.73-1.6 209.68 2.05 206.03 2.05L206.03 2.05Q205.98 2.05 205.93 2.05L205.93 2.05Q201.98 2.05 199.35-1.9 196.73-5.85 196.73-10.75L196.73-10.75Q196.73-11.35 196.78-12L196.78-12Q194.33-8.9 190.6-5.38 186.88-1.85 183.63 0.4L183.63 0.4Q178.03 4.55 173.18 4.55ZM232.62-14.55L232.62-14.55Q235.32-14.55 235.32-11.95L235.32-11.95Q235.32-10.6 234.57-9.75L234.57-9.75Q233.32-7.9 230.52-6.53 227.72-5.15 225.77-5L225.77-5Q225.07-4.95 225.02-5.4L225.02-5.4Q224.97-5.6 225.15-5.65 225.32-5.7 225.42-5.7L225.42-5.7Q226.57-5.8 228.37-6.8L228.37-6.8Q231.72-8.6 233.27-10.5L233.27-10.5Q233.92-11.4 233.92-12.23 233.92-13.05 233.12-13.05L233.12-13.05Q232.47-13.05 231.37-12.5L231.37-12.5Q229.02-11.4 226.42-8.68 223.82-5.95 223.02-3.35L223.02-3.35Q222.77-2.55 222.77-1.78 222.77-1 223.42-0.3 224.07 0.4 225.42 0.4L225.42 0.4Q226.92 0.4 228.87-0.4L228.87-0.4Q234.52-2.7 237.57-7.35L237.57-7.35Q237.87-7.75 238.12-7.5L238.12-7.5Q238.32-7.4 238.32-7.25 238.32-7.1 238.17-6.9L238.17-6.9Q236.67-4.4 234.37-2.45L234.37-2.45Q229.92 1.35 225.72 1.35L225.72 1.35Q222.12 1.35 220.67-0.8L220.67-0.8Q220.12-1.65 220.12-2.85 220.12-4.05 220.77-5.7L220.77-5.7Q222.02-8.55 226.12-11.55 230.22-14.55 232.62-14.55ZM251.02-13.5L251.02-13.5Q251.92-13.5 253.17-12.58 254.42-11.65 254.57-10.75L254.57-10.75Q254.62-10.4 254.62-10.1L254.62-10.1Q254.62-7.85 252.42-5.28 250.22-2.7 247.47-0.9L247.47-0.9Q243.22 2 239.02 2L239.02 2Q237.32 2 236.32 1.55L236.32 1.55Q235.52 1.15 238.32 1.15L238.32 1.15Q241.37 1.15 246.22-2.45L246.22-2.45Q250.92-5.75 251.92-10.35L251.92-10.35Q252.07-11.05 251.9-11.78 251.72-12.5 251.02-12.5L251.02-12.5Q248.77-12.5 245.12-9.35L245.12-9.35Q243.57-8.05 241.95-5.85 240.32-3.65 240.32-2.25L240.32-2.25Q240.32-2.05 240.4-1.83 240.47-1.6 240.22-1.1L240.22-1.1Q239.57 0.2 238.37-1.25L238.37-1.25Q238.07-2 238.07-2.8L238.07-2.8Q238.07-5.1 238.77-7.65L238.77-7.65Q238.57-7.45 237.9-6.43 237.22-5.4 236.32-4.4L236.32-4.4Q235.87-3.9 235.62-4.4L235.62-4.4Q235.57-4.5 235.57-4.67 235.57-4.85 235.77-5.1L235.77-5.1Q239.67-9.95 240.32-11.4L240.32-11.4Q241.22-13.9 243.07-17.93 244.92-21.95 246.47-24.35L246.47-24.35Q249.67-29.4 253.07-29.4L253.07-29.4Q253.67-29.4 254.32-29.25L254.32-29.25 255.32-28.9Q256.77-28.05 256.77-26.73 256.77-25.4 255.97-23.85L255.97-23.85Q254.67-21.2 250.37-17.18 246.07-13.15 242.02-10.35L242.02-10.35Q241.02-8.55 240.47-5.65L240.47-5.65Q242.32-8.4 245.3-10.95 248.27-13.5 251.02-13.5ZM249.42-18L249.42-18Q255.37-24 255.37-26.9L255.37-26.9Q255.37-28.1 254.47-28.1L254.47-28.1Q253.77-28.1 252.57-27.2L252.57-27.2Q247.42-23.25 242.57-12.35L242.57-12.35Q245.97-14.6 249.42-18ZM269.69-9.13Q271.92-11.1 274.32-12.5 276.72-13.9 278.12-14.25 279.52-14.6 280.87-14.6 282.22-14.6 283.42-13.7L283.42-13.7Q290.27-29.6 296.52-29.6L296.52-29.6Q298.62-29.6 299.37-28.4L299.37-28.4Q299.72-27.8 299.72-27.35L299.72-27.35Q299.72-26.1 298.64-24.18 297.57-22.25 295.32-19.95 293.07-17.65 288.87-14.28 284.67-10.9 284.22-10.5L284.22-10.5Q282.62-6.8 281.72-3.35 280.82 0.1 280.82 1.8 280.82 3.5 281.42 4.5L281.42 4.5Q281.72 5.15 282.32 5.28 282.92 5.4 283.34 5.13 283.77 4.85 283.99 4.65 284.22 4.45 284.54 4.28 284.87 4.1 285.02 4.2 285.17 4.3 284.97 4.75L284.97 4.75Q284.57 5.25 284.22 5.6L284.22 5.6Q283.42 6.15 282.34 6.15 281.27 6.15 280.92 6.1L280.92 6.1Q278.52 5.7 278.52 2.6L278.52 2.6Q278.52-0.4 279.32-2.95L279.32-2.95Q280.42-6.45 281.32-8.75L281.32-8.75Q273.32 0.55 269.97 0.55L269.97 0.55Q269.17 0.55 268.24 0.08 267.32-0.4 266.67-1.28 266.02-2.15 266.02-3.15 266.02-4.15 266.47-5.05L266.47-5.05Q267.47-7.15 269.69-9.13ZM282.32-11.2L283.02-12.9Q282.42-13.2 280.92-13.2 279.42-13.2 277.04-11.98 274.67-10.75 272.57-8.9L272.57-8.9Q270.82-7.25 269.49-5.18 268.17-3.1 268.17-2.15L268.17-2.15Q268.17-0.3 269.22-0.3 270.27-0.3 272.42-2L272.42-2Q277.97-6.55 282.32-11.2L282.32-11.2ZM297.67-25.5L297.67-25.5Q298.32-26.7 298.32-27.53 298.32-28.35 297.59-28.35 296.87-28.35 295.67-27.45L295.67-27.45Q290.17-23.25 285.72-13.4L285.72-13.4Q288.97-15.5 292.52-19 296.07-22.5 297.67-25.5ZM297.76-14.55L297.76-14.55Q300.46-14.55 300.46-11.95L300.46-11.95Q300.46-10.6 299.71-9.75L299.71-9.75Q298.46-7.9 295.66-6.53 292.86-5.15 290.91-5L290.91-5Q290.21-4.95 290.16-5.4L290.16-5.4Q290.11-5.6 290.29-5.65 290.46-5.7 290.56-5.7L290.56-5.7Q291.71-5.8 293.51-6.8L293.51-6.8Q296.86-8.6 298.41-10.5L298.41-10.5Q299.06-11.4 299.06-12.23 299.06-13.05 298.26-13.05L298.26-13.05Q297.61-13.05 296.51-12.5L296.51-12.5Q294.16-11.4 291.56-8.68 288.96-5.95 288.16-3.35L288.16-3.35Q287.91-2.55 287.91-1.78 287.91-1 288.56-0.3 289.21 0.4 290.56 0.4L290.56 0.4Q292.06 0.4 294.01-0.4L294.01-0.4Q299.66-2.7 302.71-7.35L302.71-7.35Q303.01-7.75 303.26-7.5L303.26-7.5Q303.46-7.4 303.46-7.25 303.46-7.1 303.31-6.9L303.31-6.9Q301.81-4.4 299.51-2.45L299.51-2.45Q295.06 1.35 290.86 1.35L290.86 1.35Q287.26 1.35 285.81-0.8L285.81-0.8Q285.26-1.65 285.26-2.85 285.26-4.05 285.91-5.7L285.91-5.7Q287.16-8.55 291.26-11.55 295.36-14.55 297.76-14.55ZM304.76-11.15L304.76-11.15Q304.76-13.55 303.36-13.55L303.36-13.55Q303.06-13.55 302.74-13.48 302.41-13.4 302.41-13.6 302.41-13.8 302.71-14.1L302.71-14.1Q303.01-14.35 304.76-14.5L304.76-14.5Q306.86-14.5 307.39-13.9 307.91-13.3 307.91-12.7 307.91-12.1 306.99-9.73 306.06-7.35 306.01-7.25L306.01-7.25Q304.51-2.75 304.66-1.6L304.66-1.6Q309.16-7.65 310.56-9.15L310.56-9.15Q313.51-12.4 314.76-13.6L314.76-13.6Q317.66-16.3 319.86-17.25L319.86-17.25Q320.51-17.5 321.01-17.5L321.01-17.5Q322.66-17.5 323.26-16.5L323.26-16.5Q323.46-16.25 323.46-16.03 323.46-15.8 323.31-15.5 323.16-15.2 322.76-15.53 322.36-15.85 320.96-15.85L320.96-15.85Q318.66-15.85 313.26-10.45L313.26-10.45Q310.01-7.1 307.29-3.45 304.56 0.2 304.36 1.75L304.36 1.75Q304.36 2.15 303.61 2.15 302.86 2.15 302.49 1.53 302.11 0.9 302.11 0.48 302.11 0.05 302.16-0.28 302.21-0.6 303.16-3.95 304.11-7.3 304.36-8.4L304.36-8.4Q303.76-7.4 302.71-5.95L302.71-5.95Q302.36-5.55 302.14-5.73 301.91-5.9 301.91-6.05 301.91-6.2 302.01-6.4L302.01-6.4Q304.11-9.25 304.76-11.15ZM329.46-14.55L329.46-14.55Q332.16-14.55 332.16-11.95L332.16-11.95Q332.16-10.6 331.41-9.75L331.41-9.75Q330.16-7.9 327.36-6.53 324.56-5.15 322.61-5L322.61-5Q321.91-4.95 321.86-5.4L321.86-5.4Q321.81-5.6 321.98-5.65 322.16-5.7 322.26-5.7L322.26-5.7Q323.41-5.8 325.21-6.8L325.21-6.8Q328.56-8.6 330.11-10.5L330.11-10.5Q330.76-11.4 330.76-12.23 330.76-13.05 329.96-13.05L329.96-13.05Q329.31-13.05 328.21-12.5L328.21-12.5Q325.86-11.4 323.26-8.68 320.66-5.95 319.86-3.35L319.86-3.35Q319.61-2.55 319.61-1.78 319.61-1 320.26-0.3 320.91 0.4 322.26 0.4L322.26 0.4Q323.76 0.4 325.71-0.4L325.71-0.4Q331.36-2.7 334.41-7.35L334.41-7.35Q334.71-7.75 334.96-7.5L334.96-7.5Q335.16-7.4 335.16-7.25 335.16-7.1 335.01-6.9L335.01-6.9Q333.51-4.4 331.21-2.45L331.21-2.45Q326.76 1.35 322.56 1.35L322.56 1.35Q318.96 1.35 317.51-0.8L317.51-0.8Q316.96-1.65 316.96-2.85 316.96-4.05 317.61-5.7L317.61-5.7Q318.86-8.55 322.96-11.55 327.06-14.55 329.46-14.55ZM351.21-25.5L351.21-25.5Q351.81-26.6 351.81-27.2L351.81-27.2Q351.81-28.25 350.96-28.25L350.96-28.25Q350.25-28.25 349.21-27.45L349.21-27.45Q345.21-24.35 341.46-17.65L341.46-17.65Q338.46-12.25 337.06-8.4L337.06-8.4Q340.5-10.75 344.78-16.05 349.06-21.35 351.21-25.5ZM336.31-6.4L336.31-6.4Q335.71-4.7 335.66-4.13 335.61-3.55 335.61-2.58 335.61-1.6 336.11-0.8L336.11-0.8Q336.96 0.55 338.96-0.6L338.96-0.6Q340.46-1.4 342.75-3.53 345.06-5.65 346.31-7.4L346.31-7.4Q346.41-7.55 346.61-7.55L346.61-7.55Q347.06-7.55 346.86-6.9L346.86-6.9Q346.11-5.55 344.08-3.45 342.06-1.35 340.41-0.13 338.75 1.1 337.11 1.1L337.11 1.1Q333.31 1.1 333.31-2.6L333.31-2.6Q333.31-2.75 333.31-2.9L333.31-2.9Q333.5-6.4 336.86-13.48 340.21-20.55 342.91-24.15L342.91-24.15 344.46-26.1Q345-26.75 346.06-27.7L346.06-27.7Q348.06-29.6 350.18-29.6 352.31-29.6 353.06-28.3L353.06-28.3Q353.31-27.85 353.31-27 353.31-26.15 352.56-24.6L352.56-24.6Q347.41-15.65 336.31-6.4ZM355.95-5.5L355.95-5.5Q356.85-7.35 356.85-8.35 356.85-9.35 356.63-9.93 356.4-10.5 356.83-10.9 357.25-11.3 357.9-11.2L357.9-11.2Q358.9-10.95 358.9-8.95 358.9-6.95 356.55-3.7L356.55-3.7Q356.6-2.35 357.95-2.35 359.3-2.35 362.05-5.25L362.05-5.25Q363.35-6.75 363.68-7.2 364-7.65 364.25-7.53 364.5-7.4 364.5-7.3L364.5-7.3Q364.5-6.8 362.7-4.7L362.7-4.7Q359.85-1.2 357.65-1.2L357.65-1.2Q356.2-1.2 355.6-2.45L355.6-2.45Q354.6-1.4 353.65-0.5L353.65-0.5Q351.7 1.15 349.3 1.15L349.3 1.15Q347.95 1.15 347.05 0.5L347.05 0.5Q345.3-0.55 345.3-3.25L345.3-3.25Q345.3-6.2 347.3-9.25L347.3-9.25Q348.45-11.05 350-12.4L350-12.4Q352.45-14.55 354.65-14.55L354.65-14.55Q355.2-14.55 355.7-14.4L355.7-14.4Q357.2-13.9 357.2-12.5L357.2-12.5Q357.2-11.35 356.6-11.35L356.6-11.35Q356.35-11.45 356.35-12.1L356.35-12.1Q356.35-13 355.35-13L355.35-13Q353.6-13 350.85-9.8 348.1-6.6 347.55-3.35L347.55-3.35Q347.45-2.8 347.45-2.13 347.45-1.45 347.9-0.58 348.35 0.3 349.58 0.3 350.8 0.3 352.25-0.8 353.7-1.9 354.85-3.6L354.85-3.6 354.7-3.9Q354.5-4.7 354.9-5.2 355.3-5.7 355.95-5.5ZM378.8-10.4L378.8-10.4Q378.8-8.2 377-5.93 375.2-3.65 372.75-1.95L372.75-1.95Q370.5-0.5 368.18 0.3 365.85 1.1 364.68 1.1 363.5 1.1 362.75 0.85L362.75 0.85Q361.65 3.4 359.7 9.4L359.7 9.4Q359.5 10.05 359.48 11.03 359.45 12 358.88 13.68 358.3 15.35 357.75 16.35L357.75 16.35Q357.5 16.95 356.3 17.32 355.1 17.7 354.6 17.7 354.1 17.7 354.1 17.2L354.1 17.2Q354.1 17 354.25 16.65L354.25 16.65Q356.55 11.95 360.05 2.83 363.55-6.3 363.9-7.3 364.25-8.3 364.9-10.2L364.9-10.2Q366-13.4 366.1-15L366.1-15Q366.1-15.6 367.7-15.6 369.3-15.6 369.3-14.45L369.3-14.45Q369.3-13.6 368.33-12.08 367.35-10.55 365.45-6L365.45-6Q368.35-10.4 370.15-11.75L370.15-11.75Q372.55-13.7 374.8-13.7L374.8-13.7Q375.7-13.7 376.6-13.4L376.6-13.4Q378.55-12.7 378.75-11.15L378.75-11.15Q378.8-10.75 378.8-10.4ZM376.35-11.1L376.35-11.1Q376.35-12.85 375-12.85L375-12.85Q374.2-12.85 372.4-11.9 370.6-10.95 368.8-9.05 367-7.15 366.03-5.48 365.05-3.8 364.2-2.02 363.35-0.25 363.2 0.05L363.2 0.05Q366.25 0.05 369.9-2.6 373.55-5.25 375.35-8.35L375.35-8.35Q376.35-9.9 376.35-11.1ZM393.2-14.55L393.2-14.55Q395.9-14.55 395.9-11.95L395.9-11.95Q395.9-10.6 395.15-9.75L395.15-9.75Q393.9-7.9 391.1-6.53 388.3-5.15 386.35-5L386.35-5Q385.65-4.95 385.6-5.4L385.6-5.4Q385.55-5.6 385.72-5.65 385.9-5.7 386-5.7L386-5.7Q387.15-5.8 388.95-6.8L388.95-6.8Q392.3-8.6 393.85-10.5L393.85-10.5Q394.5-11.4 394.5-12.23 394.5-13.05 393.7-13.05L393.7-13.05Q393.05-13.05 391.95-12.5L391.95-12.5Q389.6-11.4 387-8.68 384.4-5.95 383.6-3.35L383.6-3.35Q383.35-2.55 383.35-1.78 383.35-1 384-0.3 384.65 0.4 386 0.4L386 0.4Q387.5 0.4 389.45-0.4L389.45-0.4Q395.1-2.7 398.15-7.35L398.15-7.35Q398.45-7.75 398.7-7.5L398.7-7.5Q398.9-7.4 398.9-7.25 398.9-7.1 398.75-6.9L398.75-6.9Q397.25-4.4 394.95-2.45L394.95-2.45Q390.5 1.35 386.3 1.35L386.3 1.35Q382.7 1.35 381.25-0.8L381.25-0.8Q380.7-1.65 380.7-2.85 380.7-4.05 381.35-5.7L381.35-5.7Q382.6-8.55 386.7-11.55 390.8-14.55 393.2-14.55ZM404.2 1.25L404.2 1.25Q401.65 1.25 401.65-1.83 401.65-4.9 406.05-9.4L406.05-9.4Q406.4-9.75 406.55-9.95L406.55-9.95 406.9-10.45Q407.6-11.4 407.55-11.65L407.55-11.65 407.4-12.1Q407.2-12.7 405.75-12.98 404.3-13.25 403.4-13.25L403.4-13.25Q398.9-6.9 398.2-6 397.5-5.1 397.25-5.25 397-5.4 397-5.6 397-5.8 397.3-6.2L397.3-6.2Q400-9.5 401.95-13.25L401.95-13.25Q401.35-13.35 401.05-13.68 400.75-14 401-14.78 401.25-15.55 402.52-16.85 403.8-18.15 404.75-18.6 405.7-19.05 405.95-19.15 406.2-19.25 406.5-19.25L406.5-19.25Q407.1-19.25 406.1-17.45L406.1-17.45 404.15-14.35Q406.4-14.2 408-14.2L408-14.2 409.75-14.25Q410.6-14.25 411-14.03 411.4-13.8 411.2-13.25L411.2-13.25Q410.85-12.3 409.45-10.7L409.45-10.7Q406.45-7.2 404.95-3.25L404.95-3.25Q404.6-2.3 404.6-1.6L404.6-1.6Q404.6-0.15 405.65-0.15L405.65-0.15Q406-0.15 406.97-0.7 407.95-1.25 410.25-3.33 412.55-5.4 413.95-7.4L413.95-7.4Q414.15-7.65 414.42-7.53 414.7-7.4 414.7-7.28 414.7-7.15 414.6-7L414.6-7Q413.85-5.65 411.9-3.55 409.95-1.45 408.1-0.15L408.1-0.15Q406.3 1.25 404.2 1.25Z" opacity="1" transform="matrix(1,0,0,1,0,0)" fill="black" class="slogan-text-1" id="SvgjsPath1855"></path></svg></g></svg></g></svg></g></svg></g><g></g></svg></g></svg></g></svg></g><path d="M0 41.215L0 1 194.432 1 194.432 41.215 184.911 41.215 184.911 10.521 9.521 10.521 9.521 41.215 0 41.215M0 205.985L0 246.2 194.432 246.2 194.432 205.985 184.911 205.985 184.911 236.679 9.521 236.679 9.521 205.985 0 205.985" fill="black" stroke="transparent"></path></svg></g><defs><mask></mask></defs></svg><rect width="194.4321556346329" height="247.2" fill="black" stroke="none" visibility="hidden"></rect></g></mask></svg><rect width="194.4321556346329" height="247.2" fill="black" stroke="none" visibility="hidden"></rect></g></mask><linearGradient x1="0" x2="1" y1="0.5" y2="0.5" id="d66c829f-de8a-4785-8b25-4370a72ef83a"><stop stop-color="#ffa62e" offset="0"></stop><stop stop-color="#f71b3d" offset="1"></stop></linearGradient><rect width="194.4321556346329" height="247.2" fill="url(#d66c829f-de8a-4785-8b25-4370a72ef83a)" mask="url(#80bc16f3-d2c4-4cdb-843e-b4de87e7dc5c)" data-fill-palette-color="secondary"></rect></svg><rect width="194.4321556346329" height="247.2" fill="none" stroke="none" visibility="hidden"></rect></g></svg></g></svg>